<?xml version="1.0" encoding="utf-8"?>
<svg version="1.1" xmlns:xlink="http://www.w3.org/1999/xlink" width="50px" height="29px" xmlns="http://www.w3.org/2000/svg">
  <g transform="matrix(1 0 0 1 -663 -749 )">
    <path d="M 49.498997995991985 2.9896907216494837  C 49.83299933199733 3.3218785796105297  50 3.703894616265747  50 4.135738831615122  C 50 4.5675830469644865  49.83299933199733 4.949599083619697  49.498997995991985 5.281786941580757  L 26.152304609218437 28.501718213058417  C 25.818303273213093 28.833906071019463  25.434201736806948 29  25 29  C 24.565798263193056 29  24.18169672678691 28.833906071019463  23.847695390781563 28.501718213058417  L 0.501002004008016 5.281786941580757  C 0.1670006680026725 4.949599083619697  0 4.5675830469644865  0 4.135738831615122  C 0 3.703894616265747  0.1670006680026725 3.3218785796105297  0.501002004008016 2.9896907216494837  L 3.006012024048096 0.4982817869415822  C 3.340013360053441 0.1660939289805231  3.7241148964595863 0  4.158316633266533 0  C 4.592518370073481 0  4.976619906479626 0.1660939289805231  5.31062124248497 0.4982817869415822  L 25 20.080756013745702  L 44.68937875751503 0.4982817869415822  C 45.02338009352037 0.1660939289805231  45.40748162992652 0  45.84168336673346 0  C 46.27588510354042 0  46.65998663994657 0.1660939289805231  46.9939879759519 0.4982817869415822  L 49.498997995991985 2.9896907216494837  Z " fill-rule="nonzero" fill="#000000" stroke="none" transform="matrix(1 0 0 1 663 749 )" />
  </g>
</svg>