<?xml version="1.0" encoding="utf-8"?>
<svg version="1.1" xmlns:xlink="http://www.w3.org/1999/xlink" width="30px" height="30px" xmlns="http://www.w3.org/2000/svg">
  <g transform="matrix(1 0 0 1 -75 -1455 )">
    <path d="M 13.621621621621623 11.912994980479644  C 13.945945945945947 11.489124372559951  14.402402402402403 11.277189068600112  14.99099099099099 11.277189068600112  C 15.375375375375375 11.277189068600112  15.72972972972973 11.377579475738987  16.054054054054053 11.578360290016732  L 20.054054054054053 14.054656999442274  C 20.786786786786788 14.500836586726155  21.44744744744745 15.041829336307863  22.036036036036037 15.677635248187395  L 24.666666666666664 18.522030117122142  C 25.147147147147148 19.035136642498603  25.321321321321324 19.62632459564975  25.18918918918919 20.29559397657557  L 23.89189189189189 27.20580033463469  C 23.81981981981982 27.562744004461795  23.642642642642645 27.861126603457894  23.36036036036036 28.100948131622978  C 23.07807807807808 28.340769659788062  22.744744744744747 28.482989403234804  22.36036036036036 28.527607361963188  L 12.864864864864865 29.46458449525934  L 6.5225225225225225 30  L 6.36036036036036 30  C 5.891891891891891 30  5.486486486486486 29.843837144450642  5.144144144144144 29.531511433351923  C 4.801801801801802 29.219185722253204  4.63063063063063 28.83993307306191  4.63063063063063 28.393753485778024  C 4.63063063063063 27.981037367540434  4.792792792792793 27.62409369771333  5.117117117117117 27.322922476296707  C 5.441441441441441 27.02175125488009  5.831831831831832 26.843279419966535  6.288288288288289 26.78750697155605  L 10.972972972972972 26.252091466815394  L 2.900900900900901 26.252091466815394  C 2.408408408408409 26.252091466815394  1.9909909909909909 26.084774121583937  1.6486486486486487 25.750139431121028  C 1.3063063063063063 25.415504740658115  1.1471471471471473 25.01952035694367  1.1711711711711712 24.562186279977688  C 1.1951951951951953 24.127161182375907  1.3873873873873872 23.764640267707755  1.7477477477477477 23.47462353597323  C 2.1081081081081083 23.184606804238708  2.5225225225225225 23.039598438371446  2.990990990990991 23.039598438371446  L 10.954954954954955 23.0228667038483  L 1.5675675675675675 21.952035694366984  C 1.0750750750750753 21.8962632459565  0.6786786786786788 21.689905186837702  0.37837837837837834 21.332961517010595  C 0.07807807807807805 20.97601784718349  -0.03603603603603604 20.568878973786948  0.036036036036036036 20.11154489682097  C 0.10810810810810811 19.721137757947574  0.3153153153153153 19.400446179587284  0.6576576576576576 19.1494701617401  C 1 18.89849414389292  1.3933933933933935 18.77300613496932  1.8378378378378377 18.77300613496932  L 2.0180180180180183 18.77300613496932  L 10.684684684684685 19.776910206358057  L 4.36036036036036 18.204127161182377  C 3.9039039039039043 18.092582264361404  3.5315315315315314 17.86112660345789  3.2432432432432434 17.509760178471833  C 2.954954954954955 17.15839375348578  2.846846846846847 16.776352481873953  2.9189189189189193 16.363636363636363  C 2.990990990990991 15.962074735080872  3.189189189189189 15.635805911879531  3.5135135135135136 15.384829894032347  C 3.8378378378378377 15.133853876185164  4.21021021021021 15.008365867261572  4.63063063063063 15.008365867261572  C 4.702702702702703 15.008365867261572  4.822822822822823 15.01952035694367  4.990990990990991 15.041829336307863  L 13.063063063063064 16.64807585052984  L 16.972972972972972 17.267150027886224  C 16.984984984984987 17.267150027886224  17.003003003003005 17.26993865030675  17.027027027027025 17.275515895147798  C 17.05105105105105 17.281093139988844  17.06906906906907 17.28388176240937  17.08108108108108 17.28388176240937  C 17.35735735735736 17.28388176240937  17.54054054054054 17.15560513106525  17.63063063063063 16.899051868377025  C 17.72072072072072 16.64249860568879  17.645645645645647 16.441717791411044  17.405405405405403 16.29670942554378  L 14.054054054054054 14.205242610150586  C 13.633633633633634 13.948689347462352  13.381381381381383 13.594534300055773  13.297297297297298 13.142777467930843  C 13.213213213213214 12.691020635805913  13.321321321321323 12.281093139988844  13.621621621621623 11.912994980479644  Z M 12.73873873873874 13.234802007808144  C 12.846846846846846 13.837144450641382  13.177177177177178 14.311210262130507  13.72972972972973 14.656999442275515  L 17.08108108108108 16.74846625766871  L 13.153153153153154 16.129392080312325  L 13.063063063063064 16.095928611266036  L 12.414414414414415 15.460122699386504  L 8.126126126126126 11.076408254322365  C 8.114114114114116 11.065253764640264  8.0990990990991 11.045733407696597  8.081081081081082 11.017847183491355  C 8.063063063063062 10.98996095928611  8.048048048048049 10.970440602342443  8.036036036036036 10.959286112660346  C 7.747747747747748 10.613496932515337  7.636636636636637 10.223089793641941  7.702702702702703 9.788064696040156  C 7.768768768768769 9.353039598438372  7.993993993993994 8.996095928611263  8.378378378378377 8.71723368655884  C 8.750750750750752 8.460680423870604  9.15915915915916 8.363078639152258  9.603603603603604 8.424428332403794  C 10.048048048048049 8.485778025655323  10.432432432432432 8.672615727830449  10.756756756756756 8.98494143892917  L 13.315315315315315 11.444506413831569  C 13.291291291291293 11.45566090351366  13.261261261261263 11.475181260457333  13.225225225225225 11.503067484662576  C 13.18918918918919 11.530953708867818  13.165165165165167 11.556051310652537  13.153153153153154 11.578360290016732  C 12.76876876876877 12.080312325711098  12.63063063063063 12.632459564974903  12.73873873873874 13.234802007808144  Z M 29.17117117117117 5.931399888455102  C 29.50750750750751 6.24930284439487  29.68768768768769 6.625766871165642  29.71171171171171 7.060791968767428  L 29.98198198198198 11.51143335192415  C 30.030030030030034 12.325711098717232  29.963963963963966 13.145566090351366  29.783783783783782 13.970998326826546  L 28.91891891891892 17.635248187395426  C 28.774774774774777 18.29336307863915  28.37237237237237 18.778583379810375  27.71171171171171 19.09090909090909  L 25.8018018018018 19.99442275515895  C 25.82582582582583 19.30284439486893  25.591591591591595 18.69492470719464  25.0990990990991 18.17066369213609  L 22.46846846846847 15.326268823201337  C 21.83183183183183 14.645844952593418  21.12912912912913 14.07138873396542  20.36036036036036 13.602900167317348  L 16.36036036036036 11.1266034578918  C 15.951951951951955 10.870050195203566  15.495495495495495 10.741773563859455  14.99099099099099 10.741773563859455  C 14.378378378378379 10.741773563859455  13.849849849849852 10.948131622978247  13.405405405405405 11.36084774121584  L 9.17117117117117 6.140546569994424  C 8.87087087087087 5.77244841048522  8.762762762762764 5.362520914668153  8.846846846846846 4.910764082543225  C 8.93093093093093 4.459007250418294  9.177177177177178 4.10485220301171  9.585585585585585 3.848298940323481  C 9.981981981981981 3.6029001673173457  10.411411411411413 3.5248187395426642  10.873873873873872 3.6140546569994414  C 11.336336336336338 3.7032905744562186  11.711711711711711 3.9263803680981555  12 4.283324037925263  L 16.792792792792792 10.172894590072506  L 12.072072072072071 2.55995538204127  C 11.81981981981982 2.1695482431678714  11.756756756756756 1.7512548800892347  11.882882882882882 1.3050752928053533  C 12.00900900900901 0.8588957055214719  12.294294294294296 0.5298382598996054  12.73873873873874 0.31790295593976725  C 13.15915915915916 0.11712214166201829  13.594594594594595 0.08365867261572735  14.045045045045045 0.2175125488008911  C 14.495495495495497 0.3513664249860582  14.840840840840842 0.6079196876742865  15.08108108108108 0.9871723368655894  L 19.423423423423422 8.014500836586727  L 16.972972972972972 2.37590630228667  C 16.792792792792792 1.9854991634132713  16.765765765765767 1.5727830451756841  16.89189189189189 1.1377579475738986  C 17.01801801801802 0.702732849972113  17.285285285285287 0.3904071388733954  17.693693693693692 0.20078081427774563  C 18.13813813813814 -0.0111544896820992  18.594594594594593 -0.04461795872839014  19.063063063063062 0.10039040713887282  C 19.531531531531535 0.24539877300613244  19.86786786786787 0.5298382598996054  20.07207207207207 0.9537088678192984  L 23.54954954954955 7.897378694924708  L 25.369369369369366 11.176798661461238  C 25.465465465465467 11.344116006692694  25.603603603603602 11.44171779141104  25.783783783783782 11.469604015616286  C 25.963963963963963 11.497490239821527  26.126126126126128 11.45566090351366  26.27027027027027 11.344116006692694  C 26.414414414414413 11.232571109871722  26.48048048048048 11.08756274400446  26.46846846846847 10.90909090909091  L 26.25225225225225 7.161182375906301  C 26.22822822822823 6.70384829894032  26.384384384384386 6.307863915225878  26.72072072072072 5.9732292247629655  C 27.057057057057058 5.638594534300056  27.47147147147147 5.4656999442275485  27.963963963963963 5.454545454545453  C 28.432432432432435 5.454545454545453  28.834834834834837 5.613496932515338  29.17117117117117 5.931399888455102  Z " fill-rule="nonzero" fill="#790050" stroke="none" transform="matrix(1 0 0 1 75 1455 )" />
  </g>
</svg>