<?xml version="1.0" encoding="utf-8"?>
<svg version="1.1" xmlns:xlink="http://www.w3.org/1999/xlink" width="13px" height="16px" xmlns="http://www.w3.org/2000/svg">
  <g transform="matrix(1 0 0 1 -6 -9 )">
    <path d="M 12.571180555555555 0.296875  C 12.857060185185187 0.4947916666666643  13 0.7291666666666643  13 1  L 13 15  C 13 15.270833333333332  12.857060185185187 15.505208333333332  12.571180555555555 15.703125  C 12.285300925925927 15.901041666666668  11.94675925925926 16  11.555555555555555 16  C 11.164351851851853 16  10.825810185185187 15.901041666666668  10.539930555555555 15.703125  L 0.4288194444444445 8.703125  C 0.14293981481481502 8.505208333333332  0 8.270833333333332  0 8  C 0 7.729166666666666  0.14293981481481502 7.494791666666666  0.4288194444444445 7.296875  L 10.539930555555555 0.296875  C 10.825810185185187 0.09895833333333215  11.164351851851853 0  11.555555555555555 0  C 11.94675925925926 0  12.285300925925927 0.09895833333333215  12.571180555555555 0.296875  Z " fill-rule="nonzero" fill="#000000" stroke="none" transform="matrix(1 0 0 1 6 9 )" />
  </g>
</svg>