<?xml version="1.0" encoding="utf-8"?>
<svg version="1.1" xmlns:xlink="http://www.w3.org/1999/xlink" width="40px" height="31px" xmlns="http://www.w3.org/2000/svg">
  <g transform="matrix(1 0 0 1 -71 -1314 )">
    <path d="M 29.427083333333336 18.1337890625  C 29.635416666666664 18.449978298611107  29.670138888888893 18.776258680555554  29.53125 19.112630208333332  C 28.888888888888893 20.74066840277778  27.69097222222223 22.052517361111107  25.9375 23.048177083333332  C 24.184027777777782 24.043836805555554  22.20486111111111 24.541666666666664  20 24.541666666666664  C 17.79513888888889 24.541666666666664  15.815972222222223 24.043836805555554  14.0625 23.048177083333332  C 12.309027777777779 22.052517361111107  11.11111111111111 20.74066840277778  10.46875 19.112630208333332  C 10.32986111111111 18.776258680555554  10.364583333333332 18.449978298611107  10.572916666666668 18.1337890625  C 10.78125 17.817599826388886  11.11111111111111 17.605685763888886  11.5625 17.498046875  C 11.996527777777779 17.390407986111107  12.417534722222223 17.417317708333332  12.825520833333332 17.578776041666668  C 13.233506944444446 17.740234375  13.506944444444446 17.995876736111107  13.645833333333332 18.345703125  C 14.079861111111114 19.422092013888886  14.8828125 20.293294270833332  16.0546875 20.959309895833332  C 17.2265625 21.625325520833332  18.541666666666668 21.958333333333332  20 21.958333333333332  C 21.458333333333336 21.958333333333332  22.773437500000004 21.625325520833332  23.9453125 20.959309895833332  C 25.117187500000004 20.293294270833332  25.920138888888893 19.422092013888886  26.354166666666664 18.345703125  C 26.493055555555557 17.995876736111107  26.770833333333336 17.740234375  27.1875 17.578776041666668  C 27.604166666666664 17.417317708333332  28.029513888888893 17.390407986111107  28.463541666666664 17.498046875  C 28.897569444444446 17.605685763888886  29.21875 17.817599826388886  29.427083333333336 18.1337890625  Z M 15.690104166666668 8.5068359375  C 16.341145833333332 9.011393229166666  16.666666666666668 9.620225694444443  16.666666666666668 10.333333333333334  C 16.666666666666668 11.04644097222222  16.341145833333332 11.655273437499996  15.690104166666668 12.159830729166666  C 15.0390625 12.664388020833334  14.253472222222223 12.916666666666666  13.333333333333332 12.916666666666666  C 12.413194444444446 12.916666666666666  11.627604166666668 12.664388020833334  10.9765625 12.159830729166666  C 10.325520833333332 11.655273437499996  10 11.04644097222222  10 10.333333333333334  C 10 9.620225694444443  10.325520833333332 9.011393229166666  10.9765625 8.5068359375  C 11.627604166666668 8.002278645833334  12.413194444444446 7.75  13.333333333333332 7.75  C 14.253472222222223 7.75  15.0390625 8.002278645833334  15.690104166666668 8.5068359375  Z M 29.0234375 8.5068359375  C 29.674479166666664 9.011393229166666  30 9.620225694444443  30 10.333333333333334  C 30 11.04644097222222  29.674479166666664 11.655273437499996  29.0234375 12.159830729166666  C 28.372395833333336 12.664388020833334  27.586805555555557 12.916666666666666  26.666666666666664 12.916666666666666  C 25.746527777777782 12.916666666666666  24.9609375 12.664388020833334  24.309895833333336 12.159830729166666  C 23.658854166666664 11.655273437499996  23.333333333333336 11.04644097222222  23.333333333333336 10.333333333333334  C 23.333333333333336 9.620225694444443  23.658854166666664 9.011393229166666  24.309895833333336 8.5068359375  C 24.9609375 8.002278645833334  25.746527777777782 7.75  26.666666666666664 7.75  C 27.586805555555557 7.75  28.372395833333336 8.002278645833334  29.0234375 8.5068359375  Z M 35.338541666666664 20.515299479166668  C 36.223958333333336 18.9208984375  36.666666666666664 17.249131944444446  36.666666666666664 15.5  C 36.666666666666664 13.750868055555554  36.223958333333336 12.0791015625  35.338541666666664 10.484700520833334  C 34.453125 8.890299479166666  33.268229166666664 7.517903645833335  31.783854166666664 6.367513020833335  C 30.299479166666664 5.217122395833335  28.528645833333336 4.298828125  26.471354166666664 3.6126302083333344  C 24.4140625 2.9264322916666656  22.256944444444446 2.5833333333333344  20 2.5833333333333344  C 17.743055555555557 2.5833333333333344  15.5859375 2.9264322916666656  13.528645833333332 3.6126302083333344  C 11.471354166666668 4.298828125  9.700520833333334 5.217122395833335  8.216145833333334 6.367513020833335  C 6.731770833333334 7.517903645833335  5.546875 8.890299479166666  4.661458333333333 10.484700520833334  C 3.776041666666667 12.0791015625  3.333333333333333 13.750868055555554  3.333333333333333 15.5  C 3.333333333333333 17.249131944444446  3.776041666666667 18.9208984375  4.661458333333333 20.515299479166668  C 5.546875 22.109700520833332  6.731770833333334 23.482096354166664  8.216145833333334 24.632486979166664  C 9.700520833333334 25.782877604166664  11.471354166666668 26.701171875  13.528645833333332 27.387369791666664  C 15.5859375 28.073567708333336  17.743055555555557 28.416666666666664  20 28.416666666666664  C 22.256944444444446 28.416666666666664  24.4140625 28.073567708333336  26.471354166666664 27.387369791666664  C 28.528645833333336 26.701171875  30.299479166666664 25.782877604166664  31.783854166666664 24.632486979166664  C 33.268229166666664 23.482096354166664  34.453125 22.109700520833332  35.338541666666664 20.515299479166668  Z M 37.317708333333336 7.7197265625  C 39.10590277777777 10.094509548611107  40 12.687934027777773  40 15.5  C 40 18.31206597222222  39.10590277777777 20.905490451388886  37.317708333333336 23.2802734375  C 35.52951388888889 25.65505642361111  33.103298611111114 27.53537326388889  30.0390625 28.921223958333336  C 26.974826388888893 30.307074652777782  23.62847222222222 31  20 31  C 16.37152777777778 31  13.02517361111111 30.307074652777782  9.9609375 28.921223958333336  C 6.896701388888889 27.53537326388889  4.470486111111112 25.65505642361111  2.682291666666667 23.2802734375  C 0.8940972222222221 20.905490451388886  0 18.31206597222222  0 15.5  C 0 12.687934027777773  0.8940972222222221 10.094509548611107  2.682291666666667 7.7197265625  C 4.470486111111112 5.344943576388888  6.896701388888889 3.464626736111108  9.9609375 2.0787760416666656  C 13.02517361111111 0.6929253472222195  16.37152777777778 0  20 0  C 23.62847222222222 0  26.974826388888893 0.6929253472222195  30.0390625 2.0787760416666656  C 33.103298611111114 3.464626736111108  35.52951388888889 5.344943576388888  37.317708333333336 7.7197265625  Z " fill-rule="nonzero" fill="#790050" stroke="none" transform="matrix(1 0 0 1 71 1314 )" />
  </g>
</svg>