<?xml version="1.0" encoding="utf-8"?>
<svg version="1.1" xmlns:xlink="http://www.w3.org/1999/xlink" width="45px" height="54px" xmlns="http://www.w3.org/2000/svg">
  <g transform="matrix(1 0 0 1 -1296 -26 )">
    <path d="M 22.5 51.589285714285715  C 22.788461538461544 51.589285714285715  22.93269230769231 51.42857142857143  22.932692307692307 51.107142857142854  C 22.93269230769231 50.785714285714285  22.788461538461544 50.625  22.5 50.625  C 21.436298076923077 50.625  20.521334134615387 50.19810267857142  19.755108173076923 49.344308035714285  C 18.988882211538463 48.490513392857146  18.60576923076923 47.47098214285714  18.60576923076923 46.28571428571429  C 18.60576923076923 45.964285714285715  18.461538461538463 45.80357142857143  18.173076923076923 45.80357142857143  C 17.884615384615387 45.80357142857143  17.740384615384613 45.964285714285715  17.740384615384613 46.28571428571429  C 17.740384615384613 47.752232142857146  18.204627403846153 49.00279017857143  19.13311298076923 50.037388392857146  C 20.06159855769231 51.071986607142854  21.183894230769234 51.589285714285715  22.5 51.589285714285715  Z M 12.115384615384615 17.357142857142854  C 12.115384615384615 28.04464285714286  9.717548076923077 36.40178571428571  4.921875 42  L 40.078125 42  C 35.28245192307693 36.40178571428571  32.88461538461538 28.04464285714286  32.88461538461538 17.357142857142854  C 32.88461538461538 16.332589285714285  32.668269230769226 15.277901785714283  32.23557692307693 14.193080357142856  C 31.802884615384617 13.108258928571427  31.180889423076923 12.073660714285708  30.369591346153847 11.089285714285717  C 29.55829326923077 10.104910714285714  28.463040865384617 9.296316964285717  27.083834134615383 8.663504464285717  C 25.704627403846153 8.030691964285717  24.176682692307693 7.714285714285717  22.5 7.714285714285717  C 20.82331730769231 7.714285714285717  19.295372596153847 8.030691964285717  17.916165865384613 8.663504464285717  C 16.536959134615387 9.296316964285717  15.44170673076923 10.104910714285714  14.630408653846153 11.089285714285717  C 13.819110576923077 12.073660714285708  13.197115384615385 13.108258928571427  12.764423076923077 14.193080357142856  C 12.33173076923077 15.277901785714283  12.115384615384615 16.332589285714285  12.115384615384615 17.357142857142854  Z M 42.5390625 39.77678571428571  C 43.2782451923077 40.70089285714286  44.09855769230769 41.58482142857143  45 42.42857142857143  C 45.00000000000001 43.473214285714285  44.65745192307693 44.377232142857146  43.972355769230774 45.140625  C 43.28725961538462 45.904017857142854  42.47596153846154 46.28571428571429  41.53846153846154 46  L 29.423076923076923 46  C 29.423076923076923 48.41517857142858  28.746995192307693 50.23325892857143  27.39483173076923 51.739955357142854  C 26.04266826923077 53.246651785714285  24.411057692307697 54  22.5 54  C 20.58894230769231 54  18.95733173076923 53.246651785714285  17.60516826923077 51.739955357142854  C 16.25300480769231 50.23325892857143  15.576923076923077 48.41517857142858  15.576923076923077 46  L 3.4615384615384617 46  C 2.524038461538462 46.28571428571429  1.7127403846153848 45.904017857142854  1.0276442307692306 45.140625  C 0.34254807692307704 44.377232142857146  0 43.473214285714285  0 42.42857142857143  C 0.9014423076923079 41.58482142857143  1.7217548076923082 40.70089285714286  2.4609375 39.77678571428571  C 3.200120192307693 38.85267857142857  3.966346153846154 37.65234375  4.759615384615384 36.17578125  C 5.552884615384616 34.69921875  6.224459134615386 33.107142857142854  6.7743389423076925 31.399553571428573  C 7.324218750000001 29.691964285714285  7.774939903846154 27.62276785714286  8.126502403846155 25.191964285714285  C 8.478064903846155 22.76116071428571  8.653846153846155 20.149553571428566  8.653846153846155 17.357142857142854  C 8.653846153846155 14.303571428571425  9.708533653846155 11.465959821428573  11.817908653846153 8.844308035714283  C 13.927283653846153 6.22265625  16.69471153846154 4.630580357142853  20.12019230769231 4.068080357142856  C 19.97596153846154 3.6863839285714235  19.903846153846153 3.2946428571428577  19.903846153846153 2.8928571428571446  C 19.903846153846153 2.0892857142857126  20.15625 1.406249999999998  20.66105769230769 0.84375  C 21.165865384615387 0.281250000000002  21.778846153846153 0  22.5 0  C 23.22115384615385 0  23.83413461538462 0.281250000000002  24.338942307692307 0.84375  C 24.84375 1.406249999999998  25.096153846153847 2.0892857142857126  25.096153846153847 2.8928571428571446  C 25.096153846153847 3.2946428571428577  25.024038461538463 3.6863839285714235  24.879807692307693 4.068080357142856  C 28.305288461538467 4.630580357142853  31.072716346153847 6.22265625  33.18209134615385 8.844308035714283  C 35.29146634615385 11.465959821428573  36.34615384615385 14.303571428571425  36.34615384615385 17.357142857142854  C 36.34615384615385 20.149553571428566  36.52193509615385 22.76116071428571  36.87349759615385 25.191964285714285  C 37.22506009615385 27.62276785714286  37.67578125 29.691964285714285  38.22566105769231 31.399553571428573  C 38.77554086538462 33.107142857142854  39.44711538461539 34.69921875  40.24038461538462 36.17578125  C 41.033653846153854 37.65234375  41.79987980769232 38.85267857142857  42.5390625 39.77678571428571  Z " fill-rule="nonzero" fill="#790050" stroke="none" transform="matrix(1 0 0 1 1296 26 )" />
  </g>
</svg>