<?xml version="1.0" encoding="utf-8"?>
<svg version="1.1" xmlns:xlink="http://www.w3.org/1999/xlink" width="50px" height="38px" xmlns="http://www.w3.org/2000/svg">
  <g>
    <path d="M 49.096774193548384 5.2457912457912474  C 49.6989247311828 5.842873176206508  50.000000000000014 6.567901234567901  50 7.42087542087542  C 50.000000000000014 8.273849607182937  49.6989247311828 8.99887766554433  49.096774193548384 9.595959595959595  L 25.74193548387097 32.754208754208754  L 21.35483870967742 37.10437710437711  C 20.752688172043012 37.70145903479237  20.02150537634409 38  19.161290322580644 38  C 18.301075268817204 38  17.56989247311828 37.70145903479237  16.967741935483872 37.10437710437711  L 12.580645161290322 32.754208754208754  L 0.903225806451613 21.175084175084177  C 0.3010752688172046 20.57800224466891  0 19.852974186307517  0 19  C 0 18.14702581369248  0.3010752688172046 17.421997755331088  0.903225806451613 16.824915824915827  L 5.290322580645161 12.474747474747474  C 5.89247311827957 11.87766554433221  6.623655913978496 11.579124579124574  7.483870967741936 11.57912457912458  C 8.344086021505378 11.579124579124574  9.075268817204302 11.87766554433221  9.67741935483871 12.474747474747474  L 19.161290322580644 21.91077441077441  L 40.32258064516129 0.8956228956228958  C 40.9247311827957 0.2985409652076305  41.65591397849463 0  42.516129032258064 0  C 43.376344086021504 0  44.10752688172043 0.2985409652076305  44.70967741935484 0.8956228956228958  L 49.096774193548384 5.2457912457912474  Z " fill-rule="nonzero" fill="#ffffff" stroke="none" />
  </g>
</svg>