<?xml version="1.0" encoding="utf-8"?>
<svg version="1.1" xmlns:xlink="http://www.w3.org/1999/xlink" width="38px" height="38px" xmlns="http://www.w3.org/2000/svg">
  <g transform="matrix(1 0 0 1 -74 0 )">
    <path d="M 37.10437710437711 28.4040404040404  C 37.70145903479237 29.001122334455662  38 29.726150392817054  38 30.579124579124578  C 38 31.4320987654321  37.70145903479237 32.15712682379349  37.10437710437711 32.754208754208754  L 32.754208754208754 37.10437710437711  C 32.1571268237935 37.70145903479237  31.432098765432098 38  30.579124579124578 38  C 29.726150392817065 38  29.001122334455673 37.70145903479237  28.404040404040405 37.10437710437711  L 19 27.700336700336702  L 9.595959595959597 37.10437710437711  C 8.998877665544333 37.70145903479237  8.27384960718294 38  7.42087542087542 38  C 6.567901234567902 38  5.842873176206511 37.70145903479237  5.245791245791247 37.10437710437711  L 0.8956228956228957 32.754208754208754  C 0.2985409652076322 32.15712682379349  0 31.4320987654321  0 30.579124579124578  C 0 29.726150392817054  0.2985409652076322 29.001122334455662  0.8956228956228957 28.4040404040404  L 10.2996632996633 19  L 0.8956228956228957 9.595959595959595  C 0.2985409652076322 8.99887766554433  0 8.27384960718294  0 7.42087542087542  C 0 6.567901234567901  0.2985409652076322 5.8428731762065045  0.8956228956228957 5.2457912457912474  L 5.245791245791247 0.8956228956228958  C 5.842873176206511 0.2985409652076305  6.567901234567902 0  7.42087542087542 0  C 8.27384960718294 0  8.998877665544333 0.2985409652076305  9.595959595959597 0.8956228956228958  L 19 10.299663299663301  L 28.404040404040405 0.8956228956228958  C 29.001122334455673 0.2985409652076305  29.726150392817065 0  30.579124579124578 0  C 31.432098765432098 0  32.1571268237935 0.2985409652076305  32.754208754208754 0.8956228956228958  L 37.10437710437711 5.2457912457912474  C 37.70145903479237 5.8428731762065045  38 6.567901234567901  38 7.42087542087542  C 38 8.27384960718294  37.70145903479237 8.99887766554433  37.10437710437711 9.595959595959595  L 27.7003367003367 19  L 37.10437710437711 28.4040404040404  Z " fill-rule="nonzero" fill="#ffffff" stroke="none" transform="matrix(1 0 0 1 74 0 )" />
  </g>
</svg>