<?xml version="1.0" encoding="utf-8"?>
<svg version="1.1" xmlns:xlink="http://www.w3.org/1999/xlink" width="24px" height="33px" xmlns="http://www.w3.org/2000/svg">
  <g transform="matrix(1 0 0 1 -80 -1407 )">
    <path d="M 24 6.54486386138614  C 24 7.082611386138611  23.805555555555557 7.542079207920789  23.416666666666664 7.923267326732673  L 17 13.886138613861387  L 17 30.71287128712871  C 17.333333333333332 31.339108910891092  17.104166666666668 31.876856435643564  16.645833333333332 32.32611386138614  C 16.1875 32.77537128712871  15.638888888888891 33  15 33  C 14.36111111111111 33  13.8125 32.77537128712871  13.354166666666668 32.32611386138614  C 12.895833333333332 31.876856435643564  12.666666666666668 31.339108910891092  12.666666666666668 30.71287128712871  L 12.666666666666668 22.87128712871287  L 11.333333333333332 22.87128712871287  L 11.333333333333332 30.71287128712871  C 11.333333333333332 31.339108910891092  11.104166666666666 31.876856435643564  10.645833333333334 32.32611386138614  C 10.1875 32.77537128712871  9.638888888888891 33  9 33  C 8.36111111111111 33  7.812500000000001 32.77537128712871  7.354166666666666 32.32611386138614  C 6.895833333333334 31.876856435643564  6.666666666666667 31.339108910891092  7 30.71287128712871  L 7 13.886138613861387  L 0.5833333333333334 7.923267326732673  C 0.19444444444444464 7.542079207920789  0 7.079207920792077  0 6.534653465346533  C 0 5.990099009900989  0.19444444444444464 5.527227722772274  0.5833333333333334 5.146039603960397  C 0.9861111111111114 4.764851485148513  1.461805555555556 4.574257425742575  2.0104166666666665 4.574257425742575  C 2.5590277777777777 4.574257425742575  3.0277777777777777 4.764851485148513  3.4166666666666665 5.146039603960397  L 8.166666666666668 9.801980198019804  L 15.833333333333332 9.801980198019804  L 20.583333333333332 5.146039603960397  C 20.972222222222225 4.764851485148513  21.444444444444446 4.574257425742575  22 4.574257425742575  C 22.555555555555557 4.574257425742575  23.027777777777782 4.764851485148513  23.416666666666664 5.146039603960397  C 23.805555555555557 5.540841584158414  24 6.007116336633661  24 6.54486386138614  Z M 15.302083333333334 1.3375618811881171  C 16.211805555555557 2.229269801980194  16.666666666666668 3.3081683168316824  16.666666666666664 4.574257425742575  C 16.666666666666668 5.840346534653467  16.211805555555557 6.919245049504948  15.302083333333334 7.810952970297029  C 14.392361111111112 8.702660891089105  13.291666666666666 9.14851485148515  12 9.14851485148515  C 10.708333333333334 9.14851485148515  9.60763888888889 8.702660891089105  8.697916666666666 7.810952970297029  C 7.788194444444445 6.919245049504948  7.333333333333334 5.840346534653467  7.333333333333334 4.574257425742575  C 7.333333333333334 3.3081683168316824  7.788194444444445 2.229269801980194  8.697916666666666 1.3375618811881171  C 9.60763888888889 0.44585396039603664  10.708333333333334 0  12 0  C 13.291666666666666 0  14.392361111111112 0.44585396039603664  15.302083333333334 1.3375618811881171  Z " fill-rule="nonzero" fill="#790050" stroke="none" transform="matrix(1 0 0 1 80 1407 )" />
  </g>
</svg>