<?xml version="1.0" encoding="utf-8"?>
<svg version="1.1" xmlns:xlink="http://www.w3.org/1999/xlink" width="29px" height="50px" xmlns="http://www.w3.org/2000/svg">
  <g transform="matrix(1 0 0 1 -64 -483 )">
    <path d="M 17.1337890625 34.43080357142857  C 17.794596354166668 35.360863095238095  18.125 36.38392857142857  18.125 37.5  C 18.125 38.988095238095234  17.596354166666668 40.25297619047619  16.5390625 41.29464285714286  C 15.481770833333336 42.336309523809526  14.197916666666668 42.85714285714286  12.6875 42.85714285714286  C 11.177083333333334 42.85714285714286  9.893229166666668 42.336309523809526  8.8359375 41.29464285714286  C 7.778645833333334 40.25297619047619  7.25 38.988095238095234  7.25 37.5  C 7.25 36.38392857142857  7.580403645833334 35.360863095238095  8.2412109375 34.43080357142857  C 8.902018229166668 33.500744047619044  9.779947916666668 32.840401785714285  11 32.449776785714285  L 11 14.285714285714285  L 14 14.285714285714285  L 14 32.449776785714285  C 15.595052083333336 32.840401785714285  16.472981770833336 33.500744047619044  17.1337890625 34.43080357142857  Z M 19.10205078125 43.819754464285715  C 20.867350260416664 42.080543154761905  21.75 39.973958333333336  21.75 37.5  C 21.75 36.067708333333336  21.429036458333332 34.72842261904761  20.787109375 33.48214285714286  C 20.145182291666668 32.235863095238095  19.2578125 31.19419642857143  18 30.35714285714286  L 18 8.92857142857143  C 18.125 7.440476190476186  17.596354166666668 6.175595238095238  16.5390625 5.133928571428569  C 15.481770833333336 4.0922619047619015  14.197916666666668 3.57142857142857  12.6875 3.57142857142857  C 11.177083333333334 3.57142857142857  9.893229166666668 4.0922619047619015  8.8359375 5.133928571428569  C 7.778645833333334 6.175595238095238  7.25 7.440476190476186  7.25 8.92857142857143  L 7.25 30.35714285714286  C 6.1171875 31.19419642857143  5.229817708333334 32.235863095238095  4.587890625 33.48214285714286  C 3.945963541666667 34.72842261904761  3.625 36.067708333333336  3.625 37.5  C 3.625 39.973958333333336  4.507649739583334 42.080543154761905  6.27294921875 43.819754464285715  C 8.038248697916668 45.558965773809526  10.176432291666668 46.42857142857143  12.6875 46.42857142857143  C 15.198567708333336 46.42857142857143  17.336751302083336 45.558965773809526  19.10205078125 43.819754464285715  Z M 21.75 28.76674107142857  C 24.166666666666668 31.203497023809522  25.375 34.11458333333333  25.375 37.5  C 25.375 40.941220238095234  24.133626302083336 43.88485863095238  21.65087890625 46.33091517857143  C 19.168131510416668 48.776971726190474  16.180338541666668 50  12.6875 50  C 9.194661458333332 50  6.206868489583334 48.776971726190474  3.72412109375 46.33091517857143  C 1.2413736979166665 43.88485863095238  0 40.941220238095234  0 37.5  C 0 34.11458333333333  1.2083333333333333 31.203497023809522  4 28.76674107142857  L 4 8.92857142857143  C 3.625 6.454613095238093  4.507649739583334 4.348028273809524  6.27294921875 2.6088169642857153  C 8.038248697916668 0.8696056547619069  10.176432291666668 0  12.6875 0  C 15.198567708333336 0  17.336751302083336 0.8696056547619069  19.10205078125 2.6088169642857153  C 20.867350260416664 4.348028273809524  21.75 6.454613095238093  21.75 8.92857142857143  L 21.75 28.76674107142857  Z M 23.5625 21.42857142857143  L 29 21.42857142857143  L 29 25  L 23.5625 25  L 23.5625 21.42857142857143  Z M 23.5625 14.285714285714285  L 29 14.285714285714285  L 29 17.857142857142854  L 23.5625 17.857142857142854  L 23.5625 14.285714285714285  Z M 23.5625 7.142857142857145  L 29 7.142857142857145  L 29 10.714285714285715  L 23.5625 10.714285714285715  L 23.5625 7.142857142857145  Z " fill-rule="nonzero" fill="#f9f9f9" stroke="none" transform="matrix(1 0 0 1 64 483 )" />
  </g>
</svg>