<?xml version="1.0" encoding="utf-8"?>
<svg version="1.1" xmlns:xlink="http://www.w3.org/1999/xlink" width="36px" height="37px" xmlns="http://www.w3.org/2000/svg">
  <g transform="matrix(1 0 0 1 -75 -1360 )">
    <path d="M 19 16.654447115384613  L 19 33.37560096153846  L 33 25.615384615384613  L 33 11.473557692307693  L 19 16.654447115384613  Z M 2.8990384615384617 8.493990384615385  L 18 14.141826923076922  L 33.10096153846154 8.493990384615385  L 18 2.846153846153844  L 2.8990384615384617 8.493990384615385  Z M 35.50240384615385 6.9152644230769225  C 35.83413461538462 7.404447115384615  36 7.945512820512817  36 8.538461538461537  L 36 25.615384615384613  C 36 26.134214743589745  35.87019230769231 26.615985576923077  35.61057692307692 27.060697115384613  C 35.35096153846154 27.505408653846157  34.99759615384615 27.85376602564103  34.55048076923077 28.10576923076923  L 19.31971153846154 36.644230769230774  C 18.915865384615387 36.881410256410255  18.47596153846154 37  18 37  C 17.52403846153846 37  17.084134615384617 36.881410256410255  16.68028846153846 36.644230769230774  L 1.4495192307692308 28.10576923076923  C 1.0024038461538463 27.85376602564103  0.6490384615384616 27.505408653846157  0.3894230769230769 27.060697115384613  C 0.12980769230769232 26.615985576923077  0 26.134214743589745  0 25.615384615384613  L 0 8.538461538461537  C 0 7.945512820512817  0.16586538461538458 7.404447115384615  0.49759615384615385 6.9152644230769225  C 0.8293269230769231 6.42608173076923  1.2692307692307692 6.077724358974358  1.8173076923076923 5.8701923076923075  L 17.048076923076923 0.17788461538461475  C 17.365384615384617 0.059294871794867476  17.68269230769231 0  18 0  C 18.317307692307693 0  18.634615384615387 0.059294871794867476  18.951923076923077 0.17788461538461475  L 34.18269230769231 5.8701923076923075  C 34.73076923076923 6.077724358974358  35.17067307692308 6.42608173076923  35.50240384615385 6.9152644230769225  Z " fill-rule="nonzero" fill="#790050" stroke="none" transform="matrix(1 0 0 1 75 1360 )" />
  </g>
</svg>