<?xml version="1.0" encoding="utf-8"?>
<svg version="1.1" xmlns:xlink="http://www.w3.org/1999/xlink" width="50px" height="56px" xmlns="http://www.w3.org/2000/svg">
  <defs>
    <mask fill="white" id="clip104">
      <path d="M 34.82572115384615 42.484375  C 35.66706730769231 41.47395833333333  36.08774038461539 40.20833333333333  36.08774038461539 38.6875  C 36.08774038461539 37.5  36.032652243589745 36.385416666666664  35.92247596153847 35.34375  C 35.81229967948719 34.30208333333333  35.60196314102564 33.25520833333333  35.29146634615385 32.203125  C 34.98096955128205 31.151041666666664  34.58533653846153 30.25520833333333  34.10456730769231 29.515625000000004  C 33.62379807692308 28.776041666666664  32.98277243589744 28.171875  32.18149038461539 27.703125  C 31.380208333333336 27.234375  30.46875 26.999999999999996  29.447115384615387 26.999999999999996  C 29.326923076923077 27.08333333333333  28.991386217948715 27.296875  28.440504807692307 27.640625  C 27.889623397435898 27.984374999999996  27.463942307692307 28.23958333333333  27.163461538461537 28.40625  C 26.86298076923077 28.57291666666666  26.45733173076923 28.781249999999996  25.946514423076923 29.03125  C 25.435697115384613 29.28125  24.94491185897436 29.458333333333332  24.474158653846153 29.5625  C 24.00340544871795 29.66666666666666  23.53766025641026 29.71875  23.076923076923077 29.71875  C 22.6161858974359 29.71875  22.150440705128208 29.66666666666666  21.6796875 29.5625  C 21.208934294871796 29.458333333333332  20.71814903846154 29.28125  20.207331730769234 29.03125  C 19.696514423076923 28.781249999999996  19.290865384615387 28.57291666666666  18.990384615384613 28.40625  C 18.689903846153847 28.23958333333333  18.26422275641026 27.984374999999996  17.713341346153847 27.640625  C 17.162459935897438 27.296875  16.826923076923077 27.08333333333333  16.706730769230766 26.999999999999996  C 15.685096153846153 26.999999999999996  14.773637820512823 27.234375  13.972355769230768 27.703125  C 13.171073717948719 28.171875  12.530048076923078 28.776041666666664  12.049278846153847 29.515625000000004  C 11.568509615384617 30.25520833333333  11.172876602564104 31.151041666666664  10.862379807692307 32.203125  C 10.551883012820513 33.25520833333333  10.341546474358974 34.30208333333333  10.231370192307693 35.34375  C 10.12119391025641 36.385416666666664  10.06610576923077 37.5  10.06610576923077 38.6875  C 10.06610576923077 40.20833333333333  10.486778846153847 41.47395833333333  11.328125 42.484375  C 12.169471153846153 43.494791666666664  13.201121794871796 44  14.423076923076922 44  L 31.73076923076923 44  C 32.952724358974365 44  33.984375 43.494791666666664  34.82572115384615 42.484375  Z M 28.590745192307693 25.84375  C 30.123197115384613 24.260416666666664  30.889423076923077 22.354166666666664  30.889423076923077 20.125  C 30.889423076923077 17.875  30.123197115384613 15.958333333333329  28.590745192307693 14.375000000000002  C 27.05829326923077 12.79166666666666  25.220352564102566 12  23.076923076923077 12  C 20.933493589743595 12  19.095552884615387 12.79166666666666  17.56310096153846 14.375000000000002  C 16.03064903846154 15.958333333333329  15.264423076923078 17.875  15.264423076923078 20.125  C 15.264423076923078 22.354166666666664  16.03064903846154 24.260416666666664  17.56310096153846 25.84375  C 19.095552884615387 27.427083333333332  20.933493589743595 28.21875  23.076923076923077 28.21875  C 25.220352564102566 28.21875  27.05829326923077 27.427083333333332  28.590745192307693 25.84375  Z M 49.72956730769231 36.28125  C 49.909855769230774 36.46875  50 36.70833333333333  50 37  L 50 43  C 50 43.291666666666664  49.909855769230774 43.53125  49.72956730769231 43.71875  C 49.54927884615385 43.90625  49.318910256410255 44  49.03846153846153 44  L 46.15384615384615 44  L 46.15384615384615 51  C 46.15384615384615 52.375  45.68309294871795 53.552083333333336  44.74158653846153 54.53125  C 43.80008012820513 55.510416666666664  42.668269230769226 56  41.34615384615385 56  L 4.807692307692308 56  C 3.4855769230769234 56  2.353766025641026 55.510416666666664  1.4122596153846154 54.53125  C 0.4707532051282051 53.552083333333336  0 52.375  0 51  L 0 5.000000000000001  C 0 3.6250000000000027  0.4707532051282051 2.4479166666666634  1.4122596153846154 1.4687500000000018  C 2.353766025641026 0.4895833333333339  3.4855769230769234 0  4.807692307692308 0  L 41.34615384615385 0  C 42.668269230769226 0  43.80008012820513 0.4895833333333339  44.74158653846153 1.4687500000000018  C 45.68309294871795 2.4479166666666634  46.15384615384615 3.6250000000000027  46.15384615384615 5.000000000000001  L 46.15384615384615 12  L 49.03846153846153 12  C 49.318910256410255 12  49.54927884615385 12.093749999999998  49.72956730769231 12.28125  C 49.909855769230774 12.46875  50 12.708333333333329  50 12.999999999999996  L 50 19  C 50 19.291666666666664  49.909855769230774 19.53125  49.72956730769231 19.71875  C 49.54927884615385 19.90625  49.318910256410255 19.999999999999996  49.03846153846153 19.999999999999996  L 46.15384615384615 19.999999999999996  L 46.15384615384615 24  L 49.03846153846153 24  C 49.318910256410255 24  49.54927884615385 24.09375  49.72956730769231 24.28125  C 49.909855769230774 24.46875  50 24.70833333333333  50 25  L 50 31  C 50 31.291666666666664  49.909855769230774 31.53125  49.72956730769231 31.71875  C 49.54927884615385 31.90625  49.318910256410255 32  49.03846153846153 32  L 46.15384615384615 32  L 46.15384615384615 36  L 49.03846153846153 36  C 49.318910256410255 36  49.54927884615385 36.09375  49.72956730769231 36.28125  Z " fill-rule="evenodd" />
    </mask>
  </defs>
  <g transform="matrix(1 0 0 1 -31 -403 )">
    <path d="M 34.82572115384615 42.484375  C 35.66706730769231 41.47395833333333  36.08774038461539 40.20833333333333  36.08774038461539 38.6875  C 36.08774038461539 37.5  36.032652243589745 36.385416666666664  35.92247596153847 35.34375  C 35.81229967948719 34.30208333333333  35.60196314102564 33.25520833333333  35.29146634615385 32.203125  C 34.98096955128205 31.151041666666664  34.58533653846153 30.25520833333333  34.10456730769231 29.515625000000004  C 33.62379807692308 28.776041666666664  32.98277243589744 28.171875  32.18149038461539 27.703125  C 31.380208333333336 27.234375  30.46875 26.999999999999996  29.447115384615387 26.999999999999996  C 29.326923076923077 27.08333333333333  28.991386217948715 27.296875  28.440504807692307 27.640625  C 27.889623397435898 27.984374999999996  27.463942307692307 28.23958333333333  27.163461538461537 28.40625  C 26.86298076923077 28.57291666666666  26.45733173076923 28.781249999999996  25.946514423076923 29.03125  C 25.435697115384613 29.28125  24.94491185897436 29.458333333333332  24.474158653846153 29.5625  C 24.00340544871795 29.66666666666666  23.53766025641026 29.71875  23.076923076923077 29.71875  C 22.6161858974359 29.71875  22.150440705128208 29.66666666666666  21.6796875 29.5625  C 21.208934294871796 29.458333333333332  20.71814903846154 29.28125  20.207331730769234 29.03125  C 19.696514423076923 28.781249999999996  19.290865384615387 28.57291666666666  18.990384615384613 28.40625  C 18.689903846153847 28.23958333333333  18.26422275641026 27.984374999999996  17.713341346153847 27.640625  C 17.162459935897438 27.296875  16.826923076923077 27.08333333333333  16.706730769230766 26.999999999999996  C 15.685096153846153 26.999999999999996  14.773637820512823 27.234375  13.972355769230768 27.703125  C 13.171073717948719 28.171875  12.530048076923078 28.776041666666664  12.049278846153847 29.515625000000004  C 11.568509615384617 30.25520833333333  11.172876602564104 31.151041666666664  10.862379807692307 32.203125  C 10.551883012820513 33.25520833333333  10.341546474358974 34.30208333333333  10.231370192307693 35.34375  C 10.12119391025641 36.385416666666664  10.06610576923077 37.5  10.06610576923077 38.6875  C 10.06610576923077 40.20833333333333  10.486778846153847 41.47395833333333  11.328125 42.484375  C 12.169471153846153 43.494791666666664  13.201121794871796 44  14.423076923076922 44  L 31.73076923076923 44  C 32.952724358974365 44  33.984375 43.494791666666664  34.82572115384615 42.484375  Z M 28.590745192307693 25.84375  C 30.123197115384613 24.260416666666664  30.889423076923077 22.354166666666664  30.889423076923077 20.125  C 30.889423076923077 17.875  30.123197115384613 15.958333333333329  28.590745192307693 14.375000000000002  C 27.05829326923077 12.79166666666666  25.220352564102566 12  23.076923076923077 12  C 20.933493589743595 12  19.095552884615387 12.79166666666666  17.56310096153846 14.375000000000002  C 16.03064903846154 15.958333333333329  15.264423076923078 17.875  15.264423076923078 20.125  C 15.264423076923078 22.354166666666664  16.03064903846154 24.260416666666664  17.56310096153846 25.84375  C 19.095552884615387 27.427083333333332  20.933493589743595 28.21875  23.076923076923077 28.21875  C 25.220352564102566 28.21875  27.05829326923077 27.427083333333332  28.590745192307693 25.84375  Z M 49.72956730769231 36.28125  C 49.909855769230774 36.46875  50 36.70833333333333  50 37  L 50 43  C 50 43.291666666666664  49.909855769230774 43.53125  49.72956730769231 43.71875  C 49.54927884615385 43.90625  49.318910256410255 44  49.03846153846153 44  L 46.15384615384615 44  L 46.15384615384615 51  C 46.15384615384615 52.375  45.68309294871795 53.552083333333336  44.74158653846153 54.53125  C 43.80008012820513 55.510416666666664  42.668269230769226 56  41.34615384615385 56  L 4.807692307692308 56  C 3.4855769230769234 56  2.353766025641026 55.510416666666664  1.4122596153846154 54.53125  C 0.4707532051282051 53.552083333333336  0 52.375  0 51  L 0 5.000000000000001  C 0 3.6250000000000027  0.4707532051282051 2.4479166666666634  1.4122596153846154 1.4687500000000018  C 2.353766025641026 0.4895833333333339  3.4855769230769234 0  4.807692307692308 0  L 41.34615384615385 0  C 42.668269230769226 0  43.80008012820513 0.4895833333333339  44.74158653846153 1.4687500000000018  C 45.68309294871795 2.4479166666666634  46.15384615384615 3.6250000000000027  46.15384615384615 5.000000000000001  L 46.15384615384615 12  L 49.03846153846153 12  C 49.318910256410255 12  49.54927884615385 12.093749999999998  49.72956730769231 12.28125  C 49.909855769230774 12.46875  50 12.708333333333329  50 12.999999999999996  L 50 19  C 50 19.291666666666664  49.909855769230774 19.53125  49.72956730769231 19.71875  C 49.54927884615385 19.90625  49.318910256410255 19.999999999999996  49.03846153846153 19.999999999999996  L 46.15384615384615 19.999999999999996  L 46.15384615384615 24  L 49.03846153846153 24  C 49.318910256410255 24  49.54927884615385 24.09375  49.72956730769231 24.28125  C 49.909855769230774 24.46875  50 24.70833333333333  50 25  L 50 31  C 50 31.291666666666664  49.909855769230774 31.53125  49.72956730769231 31.71875  C 49.54927884615385 31.90625  49.318910256410255 32  49.03846153846153 32  L 46.15384615384615 32  L 46.15384615384615 36  L 49.03846153846153 36  C 49.318910256410255 36  49.54927884615385 36.09375  49.72956730769231 36.28125  Z " fill-rule="nonzero" fill="#9d4179" stroke="none" transform="matrix(1 0 0 1 31 403 )" />
    <path d="M 34.82572115384615 42.484375  C 35.66706730769231 41.47395833333333  36.08774038461539 40.20833333333333  36.08774038461539 38.6875  C 36.08774038461539 37.5  36.032652243589745 36.385416666666664  35.92247596153847 35.34375  C 35.81229967948719 34.30208333333333  35.60196314102564 33.25520833333333  35.29146634615385 32.203125  C 34.98096955128205 31.151041666666664  34.58533653846153 30.25520833333333  34.10456730769231 29.515625000000004  C 33.62379807692308 28.776041666666664  32.98277243589744 28.171875  32.18149038461539 27.703125  C 31.380208333333336 27.234375  30.46875 26.999999999999996  29.447115384615387 26.999999999999996  C 29.326923076923077 27.08333333333333  28.991386217948715 27.296875  28.440504807692307 27.640625  C 27.889623397435898 27.984374999999996  27.463942307692307 28.23958333333333  27.163461538461537 28.40625  C 26.86298076923077 28.57291666666666  26.45733173076923 28.781249999999996  25.946514423076923 29.03125  C 25.435697115384613 29.28125  24.94491185897436 29.458333333333332  24.474158653846153 29.5625  C 24.00340544871795 29.66666666666666  23.53766025641026 29.71875  23.076923076923077 29.71875  C 22.6161858974359 29.71875  22.150440705128208 29.66666666666666  21.6796875 29.5625  C 21.208934294871796 29.458333333333332  20.71814903846154 29.28125  20.207331730769234 29.03125  C 19.696514423076923 28.781249999999996  19.290865384615387 28.57291666666666  18.990384615384613 28.40625  C 18.689903846153847 28.23958333333333  18.26422275641026 27.984374999999996  17.713341346153847 27.640625  C 17.162459935897438 27.296875  16.826923076923077 27.08333333333333  16.706730769230766 26.999999999999996  C 15.685096153846153 26.999999999999996  14.773637820512823 27.234375  13.972355769230768 27.703125  C 13.171073717948719 28.171875  12.530048076923078 28.776041666666664  12.049278846153847 29.515625000000004  C 11.568509615384617 30.25520833333333  11.172876602564104 31.151041666666664  10.862379807692307 32.203125  C 10.551883012820513 33.25520833333333  10.341546474358974 34.30208333333333  10.231370192307693 35.34375  C 10.12119391025641 36.385416666666664  10.06610576923077 37.5  10.06610576923077 38.6875  C 10.06610576923077 40.20833333333333  10.486778846153847 41.47395833333333  11.328125 42.484375  C 12.169471153846153 43.494791666666664  13.201121794871796 44  14.423076923076922 44  L 31.73076923076923 44  C 32.952724358974365 44  33.984375 43.494791666666664  34.82572115384615 42.484375  Z " stroke-width="2" stroke="#000000" fill="none" transform="matrix(1 0 0 1 31 403 )" mask="url(#clip104)" />
    <path d="M 28.590745192307693 25.84375  C 30.123197115384613 24.260416666666664  30.889423076923077 22.354166666666664  30.889423076923077 20.125  C 30.889423076923077 17.875  30.123197115384613 15.958333333333329  28.590745192307693 14.375000000000002  C 27.05829326923077 12.79166666666666  25.220352564102566 12  23.076923076923077 12  C 20.933493589743595 12  19.095552884615387 12.79166666666666  17.56310096153846 14.375000000000002  C 16.03064903846154 15.958333333333329  15.264423076923078 17.875  15.264423076923078 20.125  C 15.264423076923078 22.354166666666664  16.03064903846154 24.260416666666664  17.56310096153846 25.84375  C 19.095552884615387 27.427083333333332  20.933493589743595 28.21875  23.076923076923077 28.21875  C 25.220352564102566 28.21875  27.05829326923077 27.427083333333332  28.590745192307693 25.84375  Z " stroke-width="2" stroke="#000000" fill="none" transform="matrix(1 0 0 1 31 403 )" mask="url(#clip104)" />
    <path d="M 49.72956730769231 36.28125  C 49.909855769230774 36.46875  50 36.70833333333333  50 37  L 50 43  C 50 43.291666666666664  49.909855769230774 43.53125  49.72956730769231 43.71875  C 49.54927884615385 43.90625  49.318910256410255 44  49.03846153846153 44  L 46.15384615384615 44  L 46.15384615384615 51  C 46.15384615384615 52.375  45.68309294871795 53.552083333333336  44.74158653846153 54.53125  C 43.80008012820513 55.510416666666664  42.668269230769226 56  41.34615384615385 56  L 4.807692307692308 56  C 3.4855769230769234 56  2.353766025641026 55.510416666666664  1.4122596153846154 54.53125  C 0.4707532051282051 53.552083333333336  0 52.375  0 51  L 0 5.000000000000001  C 0 3.6250000000000027  0.4707532051282051 2.4479166666666634  1.4122596153846154 1.4687500000000018  C 2.353766025641026 0.4895833333333339  3.4855769230769234 0  4.807692307692308 0  L 41.34615384615385 0  C 42.668269230769226 0  43.80008012820513 0.4895833333333339  44.74158653846153 1.4687500000000018  C 45.68309294871795 2.4479166666666634  46.15384615384615 3.6250000000000027  46.15384615384615 5.000000000000001  L 46.15384615384615 12  L 49.03846153846153 12  C 49.318910256410255 12  49.54927884615385 12.093749999999998  49.72956730769231 12.28125  C 49.909855769230774 12.46875  50 12.708333333333329  50 12.999999999999996  L 50 19  C 50 19.291666666666664  49.909855769230774 19.53125  49.72956730769231 19.71875  C 49.54927884615385 19.90625  49.318910256410255 19.999999999999996  49.03846153846153 19.999999999999996  L 46.15384615384615 19.999999999999996  L 46.15384615384615 24  L 49.03846153846153 24  C 49.318910256410255 24  49.54927884615385 24.09375  49.72956730769231 24.28125  C 49.909855769230774 24.46875  50 24.70833333333333  50 25  L 50 31  C 50 31.291666666666664  49.909855769230774 31.53125  49.72956730769231 31.71875  C 49.54927884615385 31.90625  49.318910256410255 32  49.03846153846153 32  L 46.15384615384615 32  L 46.15384615384615 36  L 49.03846153846153 36  C 49.318910256410255 36  49.54927884615385 36.09375  49.72956730769231 36.28125  Z " stroke-width="2" stroke="#000000" fill="none" transform="matrix(1 0 0 1 31 403 )" mask="url(#clip104)" />
  </g>
</svg>