<?xml version="1.0" encoding="utf-8"?>
<svg version="1.1" xmlns:xlink="http://www.w3.org/1999/xlink" width="26px" height="62px" xmlns="http://www.w3.org/2000/svg">
  <defs>
    <mask fill="white" id="clip1">
      <path d="M 0 47  L 0 11  C 0 4.839999999999975  4.839999999999975 0  11 0  C 17.160000000000025 0  22 4.839999999999975  22 11  L 22 47  C 22 53.160000000000025  17.160000000000025 58  11 58  C 4.839999999999975 58  0 53.160000000000025  0 47  Z " fill-rule="evenodd" />
    </mask>
  </defs>
  <g transform="matrix(1 0 0 1 -18.5 -61.5 )">
    <path d="M 0 47  L 0 11  C 0 4.839999999999975  4.839999999999975 0  11 0  C 17.160000000000025 0  22 4.839999999999975  22 11  L 22 47  C 22 53.160000000000025  17.160000000000025 58  11 58  C 4.839999999999975 58  0 53.160000000000025  0 47  Z " fill-rule="nonzero" fill="#ffffff" stroke="none" fill-opacity="0" transform="matrix(1 0 0 1 20 63 )" />
    <path d="M 0 47  L 0 11  C 0 4.839999999999975  4.839999999999975 0  11 0  C 17.160000000000025 0  22 4.839999999999975  22 11  L 22 47  C 22 53.160000000000025  17.160000000000025 58  11 58  C 4.839999999999975 58  0 53.160000000000025  0 47  Z " stroke-width="6" stroke="#f9f9f9" fill="none" transform="matrix(1 0 0 1 20 63 )" mask="url(#clip1)" />
    <path d="M 14.999999999999998 14.5  L 20 14.5  M 14.999999999999998 21.5  L 20 21.5  M 14.999999999999998 42.5  L 20 42.5  M 14.999999999999998 35.5  L 20 35.5  M 14.999999999999998 28.5  L 20 28.5  " stroke-width="3" stroke="#f9f9f9" fill="none" transform="matrix(1 0 0 1 20 63 )" mask="url(#clip1)" />
  </g>
</svg>