<?xml version="1.0" encoding="utf-8"?>
<svg version="1.1" xmlns:xlink="http://www.w3.org/1999/xlink" width="22px" height="21px" xmlns="http://www.w3.org/2000/svg">
  <g transform="matrix(1 0 0 1 -317 -415 )">
    <path d="M 5.041666666666666 14.109375  L 5.786458333333333 13.398437499999998  L 7.963541666666667 15.476562500000002  L 7.21875 16.1875  L 6.416666666666667 16.1875  L 6.416666666666667 14.874999999999998  L 5.041666666666666 14.874999999999998  L 5.041666666666666 14.109375  Z M 11.286458333333334 8.107421875  C 11.448784722222223 7.952473958333332  11.59201388888889 7.938802083333333  11.716145833333334 8.06640625  C 11.84982638888889 8.184895833333332  11.835503472222223 8.321614583333332  11.673177083333334 8.4765625  L 7.505208333333333 12.455078124999998  C 7.3428819444444455 12.610026041666668  7.199652777777779 12.623697916666664  7.075520833333333 12.496093749999998  C 6.941840277777779 12.377604166666664  6.9561631944444455 12.240885416666668  7.118489583333333 12.085937499999998  L 11.286458333333334 8.107421875  Z M 3.6666666666666665 17.5  L 7.791666666666667 17.5  L 15.583333333333334 10.0625  L 11.458333333333334 6.124999999999999  L 3.6666666666666665 13.562499999999998  L 3.6666666666666665 17.5  Z M 12.375 5.25  L 16.5 9.1875  L 17.817708333333336 7.929687499999999  C 18.085069444444446 7.674479166666666  18.21875 7.364583333333333  18.21875 7.000000000000001  C 18.21875 6.635416666666666  18.085069444444446 6.325520833333331  17.817708333333336 6.0703125  L 15.640625 3.992187499999999  C 15.373263888888891 3.7369791666666656  15.04861111111111 3.609375  14.666666666666666 3.609375  C 14.284722222222225 3.609375  13.960069444444446 3.7369791666666656  13.692708333333334 3.992187499999999  L 12.375 5.25  Z M 20.789713541666664 1.1552734375000009  C 21.596571180555554 1.9254557291666647  22 2.8528645833333304  22 3.9375  L 22 17.0625  C 22 18.147135416666664  21.596571180555554 19.074544270833336  20.789713541666664 19.8447265625  C 19.98285590277778 20.614908854166664  19.011284722222225 21  17.875 21  L 4.125 21  C 2.9887152777777777 21  2.0171440972222223 20.614908854166664  1.2102864583333335 19.8447265625  C 0.40342881944444436 19.074544270833336  0 18.147135416666664  0 17.0625  L 0 3.9375  C 0 2.8528645833333304  0.40342881944444436 1.9254557291666647  1.2102864583333335 1.1552734375000009  C 2.0171440972222223 0.38509114583333204  2.9887152777777777 0  4.125 0  L 17.875 0  C 19.011284722222225 0  19.98285590277778 0.38509114583333204  20.789713541666664 1.1552734375000009  Z " fill-rule="nonzero" fill="#9c4078" stroke="none" fill-opacity="0.9921568627450981" transform="matrix(1 0 0 1 317 415 )" />
  </g>
</svg>