<?xml version="1.0" encoding="utf-8"?>
<svg version="1.1" xmlns:xlink="http://www.w3.org/1999/xlink" width="27px" height="28px" xmlns="http://www.w3.org/2000/svg">
  <defs>
    <mask fill="white" id="clip22">
      <path d="M 26.820703125 20.243489583333332  C 26.940234375 21.161024305555554  27 22.13628472222222  27 23.169270833333336  C 27 24.493923611111114  26.560546875 25.630208333333336  25.681640625 26.578125  C 24.802734375000004 27.526041666666664  23.74453125 28  22.50703125 28  L 4.49296875 28  C 3.25546875 28  2.1972656250000004 27.526041666666664  1.3183593750000002 26.578125  C 0.4394531250000001 25.630208333333336  0 24.493923611111114  0 23.169270833333336  C 0 22.13628472222222  0.05976562500000014 21.161024305555554  0.17929687500000016 20.243489583333332  C 0.29882812500000017 19.325954861111107  0.5203125000000001 18.40234375  0.8437500000000002 17.47265625  C 1.1671875000000003 16.54296875  1.578515625 15.746961805555557  2.077734375 15.084635416666668  C 2.576953125 14.422309027777775  3.237890625 13.881510416666666  4.060546875 13.462239583333334  C 4.883203125 13.04296875  5.828906250000001 12.833333333333334  6.897656250000001 12.833333333333334  C 8.73984375 14.388888888888888  10.940625 15.166666666666668  13.5 15.166666666666668  C 16.059375000000003 15.166666666666668  18.26015625 14.388888888888888  20.10234375 12.833333333333334  C 21.17109375 12.833333333333334  22.116796875 13.04296875  22.939453125 13.462239583333334  C 23.762109375 13.881510416666666  24.423046875000004 14.422309027777775  24.922265625 15.084635416666668  C 25.421484375000002 15.746961805555557  25.8328125 16.54296875  26.15625 17.47265625  C 26.479687500000004 18.40234375  26.701171875000004 19.325954861111107  26.820703125 20.243489583333332  Z M 19.226953125 2.05078125  C 20.808984375 3.41796875  21.6 5.067708333333334  21.6 7  C 21.6 8.932291666666666  20.808984375 10.58203125  19.226953125 11.94921875  C 17.644921875 13.31640625  15.735937499999999 14  13.5 14  C 11.2640625 14  9.355078125 13.31640625  7.773046875 11.94921875  C 6.191015625 10.58203125  5.4 8.932291666666666  5.4 7  C 5.4 5.067708333333334  6.191015625 3.41796875  7.773046875 2.05078125  C 9.355078125 0.68359375  11.2640625 0  13.5 0  C 15.735937499999999 0  17.644921875 0.68359375  19.226953125 2.05078125  Z " fill-rule="evenodd" />
    </mask>
  </defs>
  <g transform="matrix(1 0 0 1 -1120 -809 )">
    <path d="M 26.820703125 20.243489583333332  C 26.940234375 21.161024305555554  27 22.13628472222222  27 23.169270833333336  C 27 24.493923611111114  26.560546875 25.630208333333336  25.681640625 26.578125  C 24.802734375000004 27.526041666666664  23.74453125 28  22.50703125 28  L 4.49296875 28  C 3.25546875 28  2.1972656250000004 27.526041666666664  1.3183593750000002 26.578125  C 0.4394531250000001 25.630208333333336  0 24.493923611111114  0 23.169270833333336  C 0 22.13628472222222  0.05976562500000014 21.161024305555554  0.17929687500000016 20.243489583333332  C 0.29882812500000017 19.325954861111107  0.5203125000000001 18.40234375  0.8437500000000002 17.47265625  C 1.1671875000000003 16.54296875  1.578515625 15.746961805555557  2.077734375 15.084635416666668  C 2.576953125 14.422309027777775  3.237890625 13.881510416666666  4.060546875 13.462239583333334  C 4.883203125 13.04296875  5.828906250000001 12.833333333333334  6.897656250000001 12.833333333333334  C 8.73984375 14.388888888888888  10.940625 15.166666666666668  13.5 15.166666666666668  C 16.059375000000003 15.166666666666668  18.26015625 14.388888888888888  20.10234375 12.833333333333334  C 21.17109375 12.833333333333334  22.116796875 13.04296875  22.939453125 13.462239583333334  C 23.762109375 13.881510416666666  24.423046875000004 14.422309027777775  24.922265625 15.084635416666668  C 25.421484375000002 15.746961805555557  25.8328125 16.54296875  26.15625 17.47265625  C 26.479687500000004 18.40234375  26.701171875000004 19.325954861111107  26.820703125 20.243489583333332  Z M 19.226953125 2.05078125  C 20.808984375 3.41796875  21.6 5.067708333333334  21.6 7  C 21.6 8.932291666666666  20.808984375 10.58203125  19.226953125 11.94921875  C 17.644921875 13.31640625  15.735937499999999 14  13.5 14  C 11.2640625 14  9.355078125 13.31640625  7.773046875 11.94921875  C 6.191015625 10.58203125  5.4 8.932291666666666  5.4 7  C 5.4 5.067708333333334  6.191015625 3.41796875  7.773046875 2.05078125  C 9.355078125 0.68359375  11.2640625 0  13.5 0  C 15.735937499999999 0  17.644921875 0.68359375  19.226953125 2.05078125  Z " fill-rule="nonzero" fill="#9d4179" stroke="none" transform="matrix(1 0 0 1 1120 809 )" />
    <path d="M 26.820703125 20.243489583333332  C 26.940234375 21.161024305555554  27 22.13628472222222  27 23.169270833333336  C 27 24.493923611111114  26.560546875 25.630208333333336  25.681640625 26.578125  C 24.802734375000004 27.526041666666664  23.74453125 28  22.50703125 28  L 4.49296875 28  C 3.25546875 28  2.1972656250000004 27.526041666666664  1.3183593750000002 26.578125  C 0.4394531250000001 25.630208333333336  0 24.493923611111114  0 23.169270833333336  C 0 22.13628472222222  0.05976562500000014 21.161024305555554  0.17929687500000016 20.243489583333332  C 0.29882812500000017 19.325954861111107  0.5203125000000001 18.40234375  0.8437500000000002 17.47265625  C 1.1671875000000003 16.54296875  1.578515625 15.746961805555557  2.077734375 15.084635416666668  C 2.576953125 14.422309027777775  3.237890625 13.881510416666666  4.060546875 13.462239583333334  C 4.883203125 13.04296875  5.828906250000001 12.833333333333334  6.897656250000001 12.833333333333334  C 8.73984375 14.388888888888888  10.940625 15.166666666666668  13.5 15.166666666666668  C 16.059375000000003 15.166666666666668  18.26015625 14.388888888888888  20.10234375 12.833333333333334  C 21.17109375 12.833333333333334  22.116796875 13.04296875  22.939453125 13.462239583333334  C 23.762109375 13.881510416666666  24.423046875000004 14.422309027777775  24.922265625 15.084635416666668  C 25.421484375000002 15.746961805555557  25.8328125 16.54296875  26.15625 17.47265625  C 26.479687500000004 18.40234375  26.701171875000004 19.325954861111107  26.820703125 20.243489583333332  Z " stroke-width="2" stroke="#ffffff" fill="none" transform="matrix(1 0 0 1 1120 809 )" mask="url(#clip22)" />
    <path d="M 19.226953125 2.05078125  C 20.808984375 3.41796875  21.6 5.067708333333334  21.6 7  C 21.6 8.932291666666666  20.808984375 10.58203125  19.226953125 11.94921875  C 17.644921875 13.31640625  15.735937499999999 14  13.5 14  C 11.2640625 14  9.355078125 13.31640625  7.773046875 11.94921875  C 6.191015625 10.58203125  5.4 8.932291666666666  5.4 7  C 5.4 5.067708333333334  6.191015625 3.41796875  7.773046875 2.05078125  C 9.355078125 0.68359375  11.2640625 0  13.5 0  C 15.735937499999999 0  17.644921875 0.68359375  19.226953125 2.05078125  Z " stroke-width="2" stroke="#ffffff" fill="none" transform="matrix(1 0 0 1 1120 809 )" mask="url(#clip22)" />
  </g>
</svg>

