<?xml version="1.0" encoding="utf-8"?>
<svg version="1.1" xmlns:xlink="http://www.w3.org/1999/xlink" width="53px" height="47px" xmlns="http://www.w3.org/2000/svg">
  <g transform="matrix(1 0 0 1 -1126 -611 )">
    <path d="M 25.244873046875 20.0576171875  C 23.303955078125 22.3525390625  20.9619140625 23.5  18.21875 23.5  C 15.4755859375 23.5  13.133544921875 22.3525390625  11.192626953125 20.0576171875  C 9.251708984375 17.7626953125  8.28125 14.993489583333332  8.28125 11.75  C 8.28125 8.506510416666668  9.251708984375 5.7373046875  11.192626953125 3.4423828125  C 13.133544921875 1.1474609375  15.4755859375 0  18.21875 0  C 20.9619140625 0  23.303955078125 1.1474609375  25.244873046875 3.4423828125  C 27.185791015625 5.7373046875  28.15625 8.506510416666668  28.15625 11.75  C 28.15625 14.993489583333332  27.185791015625 17.7626953125  25.244873046875 20.0576171875  Z M 43 16.645833333333332  L 43 27.416666666666664  L 52.171875 27.416666666666664  C 52.39615885416667 27.416666666666664  52.59025065104167 27.51356336805555  52.754150390625 27.707356770833336  C 52.918050130208336 27.90115017361111  53 28.13064236111111  53 28.395833333333336  L 53 34.270833333333336  C 53 34.53602430555555  52.918050130208336 34.76551649305555  52.754150390625 34.959309895833336  C 52.59025065104167 35.153103298611114  52.39615885416667 35.25  52.171875 35.25  L 43 35.25  L 43 46.02083333333333  C 43.0625 46.28602430555556  42.980550130208336 46.51551649305556  42.816650390625 46.70930989583333  C 42.65275065104167 46.90310329861111  42.45865885416667 47  42.234375 47  L 37.265625 47  C 37.041341145833336 47  36.847249348958336 46.90310329861111  36.683349609375 46.70930989583333  C 36.51944986979167 46.51551649305556  36.4375 46.28602430555556  36 46.02083333333333  L 36 35.25  L 27.328125 35.25  C 27.103841145833336 35.25  26.909749348958336 35.153103298611114  26.745849609375 34.959309895833336  C 26.581949869791668 34.76551649305555  26.5 34.53602430555555  26.5 34.270833333333336  L 26.5 28.395833333333336  C 26.5 28.13064236111111  26.581949869791668 27.90115017361111  26.745849609375 27.707356770833336  C 26.909749348958336 27.51356336805555  27.103841145833336 27.416666666666664  27.328125 27.416666666666664  L 36 27.416666666666664  L 36 16.645833333333332  C 36.4375 16.380642361111107  36.51944986979167 16.151150173611107  36.683349609375 15.957356770833332  C 36.847249348958336 15.763563368055555  37.041341145833336 15.666666666666668  37.265625 15.666666666666668  L 42.234375 15.666666666666668  C 42.45865885416667 15.666666666666668  42.65275065104167 15.763563368055555  42.816650390625 15.957356770833332  C 42.980550130208336 16.151150173611107  43.0625 16.380642361111107  43 16.645833333333332  Z M 24.015625 28.395833333333336  L 24.015625 34.270833333333336  C 24.015625 35.33159722222222  24.343424479166668 36.24956597222222  24.9990234375 37.02473958333333  C 25.654622395833336 37.79991319444444  26.430989583333336 38.1875  27.328125 38.1875  L 33.953125 38.1875  L 33.953125 45.47005208333333  C 32.77994791666667 46.49001736111111  31.304850260416668 47  29.52783203125 47  L 6.90966796875 47  C 4.822102864583334 47  3.148600260416667 46.29622395833333  1.88916015625 44.888671875  C 0.6297200520833333 43.48111979166667  0 41.54318576388889  0 39.07486979166667  C 0 37.99370659722222  0.030192057291666664 36.93804253472222  0.090576171875 35.90787760416667  C 0.15096028645833334 34.877712673611114  0.271728515625 33.765950520833336  0.452880859375 32.572591145833336  C 0.634033203125 31.379231770833336  0.8626302083333334 30.27256944444444  1.138671875 29.252604166666664  C 1.4147135416666667 28.23263888888889  1.78564453125 27.23817274305555  2.25146484375 26.269205729166664  C 2.7172851562500004 25.300238715277775  3.252115885416667 24.474066840277775  3.85595703125 23.790690104166664  C 4.459798177083334 23.107313368055557  5.197347005208334 22.561631944444443  6.068603515625 22.153645833333332  C 6.939860026041667 21.745659722222218  7.901692708333334 21.541666666666668  8.9541015625 21.541666666666668  C 9.281901041666668 21.541666666666668  9.618326822916668 21.71506076388889  9.96337890625 22.061848958333332  C 11.326334635416668 23.306206597222218  12.659098307291668 24.23947482638889  13.961669921875 24.861653645833336  C 15.264241536458334 25.483832465277775  16.683268229166668 25.794921875  18.21875 25.794921875  C 19.754231770833336 25.794921875  21.173258463541668 25.483832465277775  22.475830078125 24.861653645833336  C 23.778401692708336 24.23947482638889  25.111165364583336 23.306206597222218  26.47412109375 22.061848958333332  C 26.819173177083336 21.71506076388889  27.155598958333336 21.541666666666668  27.4833984375 21.541666666666668  C 29.7607421875 21.541666666666668  31.632649739583336 22.520833333333332  33.09912109375 24.479166666666664  L 27.328125 24.479166666666664  C 26.430989583333336 24.479166666666664  25.654622395833336 24.866753472222225  24.9990234375 25.641927083333336  C 24.343424479166668 26.41710069444444  24.015625 27.33506944444444  24.015625 28.395833333333336  Z " fill-rule="nonzero" fill="#ffffff" stroke="none" transform="matrix(1 0 0 1 1126 611 )" />
  </g>
</svg>