<?xml version="1.0" encoding="utf-8"?>
<svg version="1.1" xmlns:xlink="http://www.w3.org/1999/xlink" width="29px" height="26px" xmlns="http://www.w3.org/2000/svg">
  <g transform="matrix(1 0 0 1 -75 -1500 )">
    <path d="M 3.877704326923077 10.8671875  C 4.9756610576923075 11.815104166666668  6.34375 12.452690972222223  7.981971153846154 12.779947916666668  C 7.122195512820513 10.951822916666668  6.6923076923076925 8.858506944444443  6.6923076923076925 6.5  L 2.230769230769231 6.5  L 2.230769230769231 8.125  C 2.230769230769231 9.005208333333332  2.7797475961538463 9.919270833333332  3.877704326923077 10.8671875  Z M 25.122295673076923 10.8671875  C 26.220252403846153 9.919270833333332  26.76923076923077 9.005208333333332  26.76923076923077 8.125  L 26.76923076923077 6.5  L 22.30769230769231 6.5  C 22.30769230769231 8.858506944444443  21.87780448717949 10.951822916666668  21.018028846153847 12.779947916666668  C 22.65625 12.452690972222223  24.02433894230769 11.815104166666668  25.122295673076923 10.8671875  Z M 28.51201923076923 4.807291666666668  C 28.837339743589745 5.1232638888888875  29 5.506944444444442  29 5.958333333333332  L 29 8.125  C 29 8.926215277777777  28.758914262820515 9.733072916666668  28.276742788461537 10.545572916666668  C 27.79457131410257 11.358072916666668  27.14393028846154 12.09157986111111  26.324819711538463 12.74609375  C 25.505709134615387 13.40060763888889  24.500701121794872 13.95073784722222  23.309795673076923 14.396484375  C 22.118890224358978 14.842230902777775  20.866987179487182 15.09331597222222  19.554086538461537 15.149739583333336  C 19.06610576923077 15.759114583333336  18.51422275641026 16.295138888888886  17.8984375 16.7578125  C 17.45693108974359 17.141493055555554  17.151943108974358 17.550564236111114  16.98347355769231 17.985026041666664  C 16.81500400641026 18.41948784722222  16.730769230769234 18.924479166666664  16.73076923076923 19.5  C 16.730769230769234 20.109375  16.907952724358978 20.62282986111111  17.262319711538463 21.040364583333332  C 17.61668669871795 21.457899305555557  18.18309294871795 21.666666666666668  18.961538461538463 21.666666666666668  C 19.83293269230769 21.666666666666668  20.60847355769231 21.92339409722222  21.28816105769231 22.436848958333332  C 21.96784855769231 22.950303819444443  22.30769230769231 23.596354166666668  22.30769230769231 24.375  L 22.30769230769231 25.458333333333332  C 22.30769230769231 25.616319444444443  22.255408653846153 25.74609375  22.150841346153847 25.84765625  C 22.046274038461537 25.94921875  21.91266025641026 26  21.75 26  L 7.25 26  C 7.087339743589745 26  6.953725961538463 25.94921875  6.849158653846153 25.84765625  C 6.744591346153847 25.74609375  6.6923076923076925 25.616319444444443  6.6923076923076925 25.458333333333332  L 6.6923076923076925 24.375  C 6.6923076923076925 23.596354166666668  7.0321514423076925 22.950303819444443  7.7118389423076925 22.436848958333332  C 8.391526442307693 21.92339409722222  9.167067307692307 21.666666666666668  10.038461538461538 21.666666666666668  C 10.816907051282053 21.666666666666668  11.383313301282053 21.457899305555557  11.737680288461538 21.040364583333332  C 12.092047275641027 20.62282986111111  12.269230769230768 20.109375  12.269230769230768 19.5  C 12.269230769230768 18.924479166666664  12.184995993589745 18.41948784722222  12.016526442307693 17.985026041666664  C 11.84805689102564 17.550564236111114  11.54306891025641 17.141493055555554  11.1015625 16.7578125  C 10.485777243589745 16.295138888888886  9.933894230769232 15.759114583333336  9.445913461538462 15.149739583333336  C 8.133012820512823 15.09331597222222  6.881109775641026 14.842230902777775  5.6902043269230775 14.396484375  C 4.499298878205129 13.95073784722222  3.4942908653846154 13.40060763888889  2.6751802884615388 12.74609375  C 1.8560697115384615 12.09157986111111  1.2054286858974361 11.358072916666668  0.7232572115384616 10.545572916666668  C 0.24108573717948717 9.733072916666668  0 8.926215277777777  0 8.125  L 0 5.958333333333332  C 0 5.506944444444442  0.1626602564102564 5.1232638888888875  0.4879807692307692 4.807291666666668  C 0.8133012820512822 4.491319444444442  1.2083333333333335 4.333333333333332  1.6730769230769231 4.333333333333332  L 6.6923076923076925 4.333333333333332  L 6.6923076923076925 2.708333333333332  C 6.6923076923076925 1.9635416666666676  6.965344551282051 1.3259548611111098  7.511418269230769 0.7955729166666676  C 8.057491987179489 0.26519097222221966  8.713942307692307 0  9.480769230769232 0  L 19.51923076923077 0  C 20.28605769230769 0  20.942508012820515 0.26519097222221966  21.48858173076923 0.7955729166666676  C 22.03465544871795 1.3259548611111098  22.30769230769231 1.9635416666666676  22.30769230769231 2.708333333333332  L 22.30769230769231 4.333333333333332  L 27.326923076923077 4.333333333333332  C 27.79166666666667 4.333333333333332  28.186698717948723 4.491319444444442  28.51201923076923 4.807291666666668  Z " fill-rule="nonzero" fill="#790050" stroke="none" transform="matrix(1 0 0 1 75 1500 )" />
  </g>
</svg>