<?xml version="1.0" encoding="utf-8"?>
<svg version="1.1" xmlns:xlink="http://www.w3.org/1999/xlink" width="48px" height="50px" xmlns="http://www.w3.org/2000/svg">
  <g transform="matrix(1 0 0 1 -51 -1151 )">
    <path d="M 38.90866510538642 31.225572305974314  C 39.761124121779865 29.24343941931882  40.187353629976585 27.163595756560575  40.187353629976585 24.98604131769961  C 40.187353629976585 22.808486878838636  39.761124121779865 20.7286432160804  38.90866510538642 18.746510329424904  C 38.05620608899298 16.7643774427694  36.903981264637004 15.052112413921453  35.4519906323185 13.609715242881071  C 34 12.167318071840683  32.276346604215455 11.02270612320863  30.28103044496487 10.175879396984927  C 28.285714285714285 9.329052670761207  26.192037470726 8.90563930764936  24 8.90563930764936  C 21.807962529274004 8.90563930764936  19.714285714285715 9.329052670761207  17.71896955503513 10.175879396984927  C 15.723653395784543 11.02270612320863  14 12.167318071840683  12.548009367681498 13.609715242881071  C 11.096018735363 15.052112413921453  9.943793911007027 16.7643774427694  9.091334894613583 18.746510329424904  C 8.238875878220142 20.7286432160804  7.812646370023419 22.808486878838636  7.812646370023419 24.98604131769961  C 7.812646370023419 27.163595756560575  8.238875878220142 29.24343941931882  9.091334894613583 31.225572305974314  C 9.943793911007027 33.20770519262982  11.096018735363 34.91997022147776  12.548009367681498 36.362367392518145  C 14 37.804764563558535  15.723653395784543 38.94937651219059  17.71896955503513 39.79620323841429  C 19.714285714285715 40.643029964638  21.807962529274004 41.06644332774986  24 41.06644332774986  C 26.192037470726 41.06644332774986  28.285714285714285 40.643029964638  30.28103044496487 39.79620323841429  C 32.276346604215455 38.94937651219059  34 37.804764563558535  35.4519906323185 36.362367392518145  C 36.903981264637004 34.91997022147776  38.05620608899298 33.20770519262982  38.90866510538642 31.225572305974314  Z M 47.831381733021075 31.909547738693465  C 48 32.13288665549972  48.03747072599532 32.40275451330727  47.94379391100703 32.71915131211613  C 47.868852459016395 32.99832495812395  47.68149882903981 33.18444072212916  47.38173302107728 33.27749860413177  L 39.175644028103044 35.95756560580681  L 39.175644028103044 44.50027917364601  C 39.175644028103044 44.79806439605435  39.05386416861827 45.040014889261116  38.81030444964871 45.22613065326633  C 38.52927400468384 45.41224641727155  38.2576112412178 45.44946957007259  37.995316159250585 45.33780011166946  L 29.789227166276348 42.71356783919598  L 24.730679156908664 49.63707426018984  C 24.54332552693209 49.879024753396614  24.29976580796253 50  24 50  C 23.700234192037474 50  23.456674473067917 49.879024753396614  23.269320843091336 49.63707426018984  L 18.210772833723652 42.71356783919598  L 10.004683840749415 45.33780011166946  C 9.7423887587822 45.44946957007259  9.470725995316158 45.41224641727155  9.189695550351288 45.22613065326633  C 8.946135831381733 45.040014889261116  8.824355971896956 44.79806439605435  8.824355971896956 44.50027917364601  L 8.824355971896956 35.95756560580681  L 0.6182669789227166 33.27749860413177  C 0.3185011709601872 33.18444072212916  0.13114754098360648 32.99832495812395  0.05620608899297424 32.71915131211613  C -0.03747072599531602 32.40275451330727  0 32.13288665549972  0.1686182669789227 31.909547738693465  L 5.227166276346604 24.98604131769961  L 0.1686182669789227 18.06253489670575  C 0 17.820584403498973  -0.03747072599531602 17.550716545691415  0.05620608899297424 17.252931323283082  C 0.13114754098360648 16.973757677275263  0.3185011709601872 16.78764191327005  0.6182669789227166 16.69458403126745  L 8.824355971896956 14.014517029592405  L 8.824355971896956 5.471803461753211  C 8.824355971896956 5.174018239344869  8.946135831381733 4.932067746138092  9.189695550351288 4.745951982132884  C 9.470725995316158 4.559836218127672  9.7423887587822 4.522613065326631  10.004683840749415 4.634282523729761  L 18.210772833723652 7.258514796203236  L 23.269320843091336 0.335008375209378  C 23.43793911007026 0.11166945840312414  23.681498829039814 0  24 0  C 24.31850117096019 0  24.562060889929743 0.11166945840312414  24.730679156908664 0.335008375209378  L 29.789227166276348 7.258514796203236  L 37.995316159250585 4.634282523729761  C 38.2576112412178 4.522613065326631  38.52927400468384 4.559836218127672  38.81030444964871 4.745951982132884  C 39.05386416861827 4.932067746138092  39.175644028103044 5.174018239344869  39.175644028103044 5.471803461753211  L 39.175644028103044 14.014517029592405  L 47.38173302107728 16.69458403126745  C 47.68149882903981 16.78764191327005  47.868852459016395 16.973757677275263  47.94379391100703 17.252931323283082  C 48.03747072599532 17.550716545691415  48 17.820584403498973  47.831381733021075 18.06253489670575  L 42.77283372365339 24.98604131769961  L 47.831381733021075 31.909547738693465  Z " fill-rule="nonzero" fill="#ffffff" stroke="none" transform="matrix(1 0 0 1 51 1151 )" />
  </g>
</svg>