<?xml version="1.0" encoding="utf-8"?>
<svg version="1.1" xmlns:xlink="http://www.w3.org/1999/xlink" width="53px" height="38px" xmlns="http://www.w3.org/2000/svg">
  <defs>
    <mask fill="white" id="clip2">
      <path d="M 13 8.438248249378805  C 26.35163189939125 8.417353738423232  25.84883720930233 0.6937500000000055  25.84883720930233 3.5904605263157894  C 25.84883720930233 6.487171052631573  20.19534883720931 8.763157894736842  13 8.763157894736842  C 5.804651162790691 8.763157894736842  0.15116279069766847 6.487171052631573  0.15116279069766847 3.5904605263157894  C 0.15116279069766847 0.6937500000000055  -0.3516318993912506 8.459142760334379  13 8.438248249378805  Z M 39 8.438248249378805  C 52.351631899391236 8.417353738423232  51.84883720930233 0.6937500000000055  51.84883720930233 3.5904605263157894  C 51.84883720930233 6.487171052631573  46.19534883720931 8.763157894736842  39 8.763157894736842  C 31.80465116279069 8.763157894736842  26.15116279069767 6.487171052631573  26.15116279069767 3.5904605263157894  C 26.15116279069767 0.6937500000000055  25.64836810060875 8.459142760334379  39 8.438248249378805  Z M 25.84883720930233 13.327302631578949  C 25.84883720930233 16.22401315789473  20.19534883720931 18.5  13 18.5  C 5.804651162790691 18.5  0.15116279069766847 16.22401315789473  0.15116279069766847 13.327302631578949  C 0.15116279069766847 10.430592105263162  -0.3516318993912506 18.195984865597538  13 18.175090354641963  C 26.35163189939125 18.154195843686388  25.84883720930233 10.430592105263162  25.84883720930233 13.327302631578949  Z M 39 18.5  C 31.80465116279069 18.5  26.15116279069767 16.22401315789473  26.15116279069767 13.327302631578949  C 26.15116279069767 10.430592105263162  25.64836810060875 18.195984865597538  39 18.175090354641963  C 52.351631899391236 18.154195843686388  51.84883720930233 10.430592105263162  51.84883720930233 13.327302631578949  C 51.84883720930233 16.22401315789473  46.19534883720931 18.5  39 18.5  Z M 0.15116279069766847 23.064144736842103  C 0.15116279069766847 20.16743421052632  -0.3516318993912506 27.93282697086069  13 27.911932459905124  C 26.35163189939125 27.89103794894955  25.84883720930233 20.16743421052632  25.84883720930233 23.064144736842103  C 25.84883720930233 25.960855263157892  20.19534883720931 28.23684210526316  13 28.23684210526316  C 5.804651162790691 28.23684210526316  0.15116279069766847 25.960855263157892  0.15116279069766847 23.064144736842103  Z M 39 27.911932459905124  C 52.351631899391236 27.89103794894955  51.84883720930233 20.16743421052632  51.84883720930233 23.064144736842103  C 51.84883720930233 25.960855263157892  46.19534883720931 28.23684210526316  39 28.23684210526316  C 31.80465116279069 28.23684210526316  26.15116279069767 25.960855263157892  26.15116279069767 23.064144736842103  C 26.15116279069767 20.16743421052632  25.64836810060875 27.93282697086069  39 27.911932459905124  Z M 25.84883720930233 31.82730263157895  C 25.84883720930233 34.72401315789473  20.19534883720931 37  13 37  C 5.804651162790691 37  0.15116279069766847 34.72401315789473  0.15116279069766847 31.82730263157895  C 0.15116279069766847 28.930592105263166  -0.3516318993912506 36.69598486559754  13 36.675090354641966  C 26.35163189939125 36.65419584368639  25.84883720930233 28.930592105263166  25.84883720930233 31.82730263157895  Z M 39 37  C 31.80465116279069 37  26.15116279069767 34.72401315789473  26.15116279069767 31.82730263157895  C 26.15116279069767 28.930592105263166  25.64836810060875 36.69598486559754  39 36.675090354641966  C 52.351631899391236 36.65419584368639  51.84883720930233 28.930592105263166  51.84883720930233 31.82730263157895  C 51.84883720930233 34.72401315789473  46.19534883720931 37  39 37  Z " fill-rule="evenodd" />
    </mask>
  </defs>
  <g transform="matrix(1 0 0 1 -83 -74 )">
    <path d="M 13 8.438248249378805  C 26.35163189939125 8.417353738423232  25.84883720930233 0.6937500000000055  25.84883720930233 3.5904605263157894  C 25.84883720930233 6.487171052631573  20.19534883720931 8.763157894736842  13 8.763157894736842  C 5.804651162790691 8.763157894736842  0.15116279069766847 6.487171052631573  0.15116279069766847 3.5904605263157894  C 0.15116279069766847 0.6937500000000055  -0.3516318993912506 8.459142760334379  13 8.438248249378805  Z M 39 8.438248249378805  C 52.351631899391236 8.417353738423232  51.84883720930233 0.6937500000000055  51.84883720930233 3.5904605263157894  C 51.84883720930233 6.487171052631573  46.19534883720931 8.763157894736842  39 8.763157894736842  C 31.80465116279069 8.763157894736842  26.15116279069767 6.487171052631573  26.15116279069767 3.5904605263157894  C 26.15116279069767 0.6937500000000055  25.64836810060875 8.459142760334379  39 8.438248249378805  Z M 25.84883720930233 13.327302631578949  C 25.84883720930233 16.22401315789473  20.19534883720931 18.5  13 18.5  C 5.804651162790691 18.5  0.15116279069766847 16.22401315789473  0.15116279069766847 13.327302631578949  C 0.15116279069766847 10.430592105263162  -0.3516318993912506 18.195984865597538  13 18.175090354641963  C 26.35163189939125 18.154195843686388  25.84883720930233 10.430592105263162  25.84883720930233 13.327302631578949  Z M 39 18.5  C 31.80465116279069 18.5  26.15116279069767 16.22401315789473  26.15116279069767 13.327302631578949  C 26.15116279069767 10.430592105263162  25.64836810060875 18.195984865597538  39 18.175090354641963  C 52.351631899391236 18.154195843686388  51.84883720930233 10.430592105263162  51.84883720930233 13.327302631578949  C 51.84883720930233 16.22401315789473  46.19534883720931 18.5  39 18.5  Z M 0.15116279069766847 23.064144736842103  C 0.15116279069766847 20.16743421052632  -0.3516318993912506 27.93282697086069  13 27.911932459905124  C 26.35163189939125 27.89103794894955  25.84883720930233 20.16743421052632  25.84883720930233 23.064144736842103  C 25.84883720930233 25.960855263157892  20.19534883720931 28.23684210526316  13 28.23684210526316  C 5.804651162790691 28.23684210526316  0.15116279069766847 25.960855263157892  0.15116279069766847 23.064144736842103  Z M 39 27.911932459905124  C 52.351631899391236 27.89103794894955  51.84883720930233 20.16743421052632  51.84883720930233 23.064144736842103  C 51.84883720930233 25.960855263157892  46.19534883720931 28.23684210526316  39 28.23684210526316  C 31.80465116279069 28.23684210526316  26.15116279069767 25.960855263157892  26.15116279069767 23.064144736842103  C 26.15116279069767 20.16743421052632  25.64836810060875 27.93282697086069  39 27.911932459905124  Z M 25.84883720930233 31.82730263157895  C 25.84883720930233 34.72401315789473  20.19534883720931 37  13 37  C 5.804651162790691 37  0.15116279069766847 34.72401315789473  0.15116279069766847 31.82730263157895  C 0.15116279069766847 28.930592105263166  -0.3516318993912506 36.69598486559754  13 36.675090354641966  C 26.35163189939125 36.65419584368639  25.84883720930233 28.930592105263166  25.84883720930233 31.82730263157895  Z M 39 37  C 31.80465116279069 37  26.15116279069767 34.72401315789473  26.15116279069767 31.82730263157895  C 26.15116279069767 28.930592105263166  25.64836810060875 36.69598486559754  39 36.675090354641966  C 52.351631899391236 36.65419584368639  51.84883720930233 28.930592105263166  51.84883720930233 31.82730263157895  C 51.84883720930233 34.72401315789473  46.19534883720931 37  39 37  Z " fill-rule="nonzero" fill="#ffffff" stroke="none" transform="matrix(1 0 0 1 83 74 )" />
    <path d="M 13 8.438248249378805  C 26.35163189939125 8.417353738423232  25.84883720930233 0.6937500000000055  25.84883720930233 3.5904605263157894  C 25.84883720930233 6.487171052631573  20.19534883720931 8.763157894736842  13 8.763157894736842  C 5.804651162790691 8.763157894736842  0.15116279069766847 6.487171052631573  0.15116279069766847 3.5904605263157894  C 0.15116279069766847 0.6937500000000055  -0.3516318993912506 8.459142760334379  13 8.438248249378805  Z " stroke-width="2" stroke="#f9f9f9" fill="none" transform="matrix(1 0 0 1 83 74 )" mask="url(#clip2)" />
    <path d="M 39 8.438248249378805  C 52.351631899391236 8.417353738423232  51.84883720930233 0.6937500000000055  51.84883720930233 3.5904605263157894  C 51.84883720930233 6.487171052631573  46.19534883720931 8.763157894736842  39 8.763157894736842  C 31.80465116279069 8.763157894736842  26.15116279069767 6.487171052631573  26.15116279069767 3.5904605263157894  C 26.15116279069767 0.6937500000000055  25.64836810060875 8.459142760334379  39 8.438248249378805  Z " stroke-width="2" stroke="#f9f9f9" fill="none" transform="matrix(1 0 0 1 83 74 )" mask="url(#clip2)" />
    <path d="M 25.84883720930233 13.327302631578949  C 25.84883720930233 16.22401315789473  20.19534883720931 18.5  13 18.5  C 5.804651162790691 18.5  0.15116279069766847 16.22401315789473  0.15116279069766847 13.327302631578949  C 0.15116279069766847 10.430592105263162  -0.3516318993912506 18.195984865597538  13 18.175090354641963  C 26.35163189939125 18.154195843686388  25.84883720930233 10.430592105263162  25.84883720930233 13.327302631578949  Z " stroke-width="2" stroke="#f9f9f9" fill="none" transform="matrix(1 0 0 1 83 74 )" mask="url(#clip2)" />
    <path d="M 39 18.5  C 31.80465116279069 18.5  26.15116279069767 16.22401315789473  26.15116279069767 13.327302631578949  C 26.15116279069767 10.430592105263162  25.64836810060875 18.195984865597538  39 18.175090354641963  C 52.351631899391236 18.154195843686388  51.84883720930233 10.430592105263162  51.84883720930233 13.327302631578949  C 51.84883720930233 16.22401315789473  46.19534883720931 18.5  39 18.5  Z " stroke-width="2" stroke="#f9f9f9" fill="none" transform="matrix(1 0 0 1 83 74 )" mask="url(#clip2)" />
    <path d="M 0.15116279069766847 23.064144736842103  C 0.15116279069766847 20.16743421052632  -0.3516318993912506 27.93282697086069  13 27.911932459905124  C 26.35163189939125 27.89103794894955  25.84883720930233 20.16743421052632  25.84883720930233 23.064144736842103  C 25.84883720930233 25.960855263157892  20.19534883720931 28.23684210526316  13 28.23684210526316  C 5.804651162790691 28.23684210526316  0.15116279069766847 25.960855263157892  0.15116279069766847 23.064144736842103  Z " stroke-width="2" stroke="#f9f9f9" fill="none" transform="matrix(1 0 0 1 83 74 )" mask="url(#clip2)" />
    <path d="M 39 27.911932459905124  C 52.351631899391236 27.89103794894955  51.84883720930233 20.16743421052632  51.84883720930233 23.064144736842103  C 51.84883720930233 25.960855263157892  46.19534883720931 28.23684210526316  39 28.23684210526316  C 31.80465116279069 28.23684210526316  26.15116279069767 25.960855263157892  26.15116279069767 23.064144736842103  C 26.15116279069767 20.16743421052632  25.64836810060875 27.93282697086069  39 27.911932459905124  Z " stroke-width="2" stroke="#f9f9f9" fill="none" transform="matrix(1 0 0 1 83 74 )" mask="url(#clip2)" />
    <path d="M 25.84883720930233 31.82730263157895  C 25.84883720930233 34.72401315789473  20.19534883720931 37  13 37  C 5.804651162790691 37  0.15116279069766847 34.72401315789473  0.15116279069766847 31.82730263157895  C 0.15116279069766847 28.930592105263166  -0.3516318993912506 36.69598486559754  13 36.675090354641966  C 26.35163189939125 36.65419584368639  25.84883720930233 28.930592105263166  25.84883720930233 31.82730263157895  Z " stroke-width="2" stroke="#f9f9f9" fill="none" transform="matrix(1 0 0 1 83 74 )" mask="url(#clip2)" />
    <path d="M 39 37  C 31.80465116279069 37  26.15116279069767 34.72401315789473  26.15116279069767 31.82730263157895  C 26.15116279069767 28.930592105263166  25.64836810060875 36.69598486559754  39 36.675090354641966  C 52.351631899391236 36.65419584368639  51.84883720930233 28.930592105263166  51.84883720930233 31.82730263157895  C 51.84883720930233 34.72401315789473  46.19534883720931 37  39 37  Z " stroke-width="2" stroke="#f9f9f9" fill="none" transform="matrix(1 0 0 1 83 74 )" mask="url(#clip2)" />
    <path d="M 6 10.223684210526317  L 7 10.223684210526317  M 19 13.144736842105264  L 20 13.144736842105264  M 39 10.223684210526317  L 40 10.223684210526317  M 32 19.960526315789473  L 33 19.960526315789473  M 17 32.618421052631575  L 18 32.618421052631575  M 42 22.88157894736842  L 43 22.88157894736842  M 7 22.88157894736842  L 8 22.88157894736842  M 35 32.618421052631575  L 36 32.618421052631575  M 7 31.644736842105264  L 8 31.644736842105264  M 35 0.48684210526315785  L 36 0.48684210526315785  M 12 3.407894736842105  L 13 3.407894736842105  " stroke-width="1" stroke="#f9f9f9" fill="none" transform="matrix(1 0 0 1 83 74 )" mask="url(#clip2)" />
  </g>
</svg>