<?xml version="1.0" encoding="utf-8"?>
<svg version="1.1" xmlns:xlink="http://www.w3.org/1999/xlink" width="43px" height="42px" xmlns="http://www.w3.org/2000/svg">
  <g transform="matrix(1 0 0 1 -203 -17 )">
    <path d="M 13.149553571428573 1.6640624999999993  C 15.805059523809526 0.5546874999999998  18.588541666666668 0  21.5 0  C 24.411458333333336 0  27.19494047619048 0.5546874999999998  29.85044642857143 1.6640624999999993  C 32.50595238095239 2.773437499999999  34.793526785714285 4.265625  36.713169642857146 6.140624999999998  C 38.63281250000001 8.015625  40.16052827380953 10.249999999999996  41.296316964285715 12.843749999999998  C 42.43210565476191 15.437499999999996  43 18.15625  43 21  C 43 23.828125  42.436104910714285 26.5390625  41.308314732142854 29.132812499999996  C 40.18052455357143 31.726562500000004  38.656808035714285 33.9609375  36.73716517857143 35.8359375  C 34.81752232142857 37.7109375  32.52994791666667 39.20703124999999  29.874441964285715 40.32421875  C 27.218936011904766 41.44140625  24.427455357142854 42  21.5 42  C 18.572544642857142 42  15.78106398809524 41.4453125  13.125558035714285 40.3359375  C 10.470052083333334 39.2265625  8.18647693452381 37.73046874999999  6.2748325892857135 35.84765625  C 4.363188244047619 33.96484375  2.8394717261904763 31.73046875  1.7036830357142856 29.14453125  C 0.5678943452380951 26.558593749999996  0 23.843749999999996  0 21  C 0 18.15625  0.5678943452380951 15.437499999999996  1.7036830357142856 12.843749999999998  C 2.8394717261904763 10.249999999999996  4.3671875 8.015625  6.286830357142858 6.140624999999998  C 8.206473214285714 4.265625  10.49404761904762 2.773437499999999  13.149553571428573 1.6640624999999993  Z M 29.01060267857143 24  C 32.849888392857146 24  35.297433035714285 26.5546875  36.353236607142854 31.6640625  C 38.73679315476191 28.4609375  39.92857142857143 24.906249999999996  39.92857142857143 21  C 39.92857142857143 18.5625  39.440662202380956 16.234374999999996  38.46484375 14.015624999999998  C 37.48902529761905 11.796874999999998  36.1772693452381 9.882812499999996  34.529575892857146 8.273437499999998  C 32.8818824404762 6.6640625  30.922247023809526 5.382812499999998  28.650669642857146 4.4296875  C 26.379092261904766 3.4765624999999973  23.995535714285715 2.9999999999999987  21.5 2.9999999999999987  C 19.004464285714285 2.9999999999999987  16.62090773809524 3.4765624999999973  14.349330357142858 4.4296875  C 12.077752976190478 5.382812499999998  10.118117559523812 6.6640625  8.470424107142858 8.273437499999998  C 6.822730654761906 9.882812499999996  5.5109747023809526 11.796874999999998  4.53515625 14.015624999999998  C 3.559337797619048 16.234374999999996  3.071428571428571 18.5625  3.071428571428571 21  C 3.071428571428571 24.906249999999996  4.263206845238096 28.4609375  6.646763392857142 31.6640625  C 7.7025669642857135 26.5546875  10.150111607142858 24  13.989397321428573 24  C 16.085007440476193 26  18.588541666666668 26.999999999999996  21.5 26.999999999999996  C 24.411458333333336 26.999999999999996  26.91499255952381 26  29.01060267857143 24  Z M 28.01478794642857 22.86328125  C 29.814453125 21.10546875  30.714285714285715 18.984375  30.714285714285715 16.500000000000004  C 30.714285714285715 14.015624999999998  29.814453125 11.89453125  28.01478794642857 10.136718749999998  C 26.215122767857146 8.378906250000002  24.043526785714285 7.500000000000002  21.5 7.500000000000002  C 18.956473214285715 7.500000000000002  16.784877232142858 8.378906250000002  14.985212053571427 10.136718749999998  C 13.185546875 11.89453125  12.285714285714285 14.015624999999998  12.285714285714285 16.500000000000004  C 12.285714285714285 18.984375  13.185546875 21.10546875  14.985212053571427 22.86328125  C 16.784877232142858 24.621093749999996  18.956473214285715 25.500000000000004  21.5 25.500000000000004  C 24.043526785714285 25.500000000000004  26.215122767857146 24.621093749999996  28.01478794642857 22.86328125  Z " fill-rule="nonzero" fill="#790050" stroke="none" transform="matrix(1 0 0 1 203 17 )" />
  </g>
</svg>