<?xml version="1.0" encoding="utf-8"?>
<svg version="1.1" xmlns:xlink="http://www.w3.org/1999/xlink" width="50px" height="50px" xmlns="http://www.w3.org/2000/svg">
  <g transform="matrix(1 0 0 1 -57 -704 )">
    <path d="M 41.05747767857143 0  C 43.52213541666667 0  45.62872023809524 0.874255952380959  47.377232142857146 2.622767857142855  C 49.12574404761905 4.371279761904756  50 6.477864583333331  50 8.94252232142857  C 50 11.407180059523808  49.12574404761905 13.504464285714285  47.377232142857146 15.234375  L 41.099330357142854 21.456473214285715  L 44.00111607142857 24.35825892857143  C 44.18712797619048 24.544270833333332  44.28013392857144 24.758184523809522  44.28013392857143 25  C 44.28013392857144 25.241815476190478  44.18712797619048 25.455729166666664  44.00111607142857 25.64174107142857  L 38.14174107142857 31.50111607142857  C 37.95572916666667 31.68712797619047  37.741815476190474 31.78013392857143  37.5 31.78013392857143  C 37.258184523809526 31.78013392857143  37.044270833333336 31.68712797619047  36.85825892857143 31.50111607142857  L 33.92857142857143 28.57142857142857  L 17.103794642857142 45.396205357142854  C 16.415550595238095 46.084449404761905  15.578497023809526 46.42857142857143  14.592633928571427 46.42857142857143  L 8.928571428571429 46.42857142857143  L 1.7857142857142856 50  L 0 48.214285714285715  L 3.571428571428571 41.07142857142857  L 3.571428571428571 35.40736607142857  C 3.571428571428571 34.421502976190474  3.9155505952380953 33.5844494047619  4.603794642857143 32.89620535714286  L 21.428571428571427 16.07142857142857  L 18.498883928571427 13.14174107142857  C 18.312872023809526 12.955729166666663  18.219866071428573 12.741815476190471  18.219866071428573 12.5  C 18.219866071428573 12.258184523809524  18.312872023809526 12.044270833333332  18.498883928571427 11.85825892857143  L 24.358258928571427 5.998883928571431  C 24.544270833333336 5.812872023809524  24.758184523809526 5.719866071428569  25 5.719866071428569  C 25.241815476190478 5.719866071428569  25.455729166666668 5.812872023809524  25.64174107142857 5.998883928571431  L 28.543526785714285 8.900669642857146  L 34.765625 2.622767857142855  C 36.495535714285715 0.874255952380959  38.59281994047619 0  41.05747767857143 0  Z M 8.928571428571429 41.07142857142857  L 14.285714285714285 41.07142857142857  L 30.357142857142854 25  L 25 19.642857142857146  L 8.928571428571429 35.714285714285715  L 8.928571428571429 41.07142857142857  Z " fill-rule="nonzero" fill="#f9f9f9" stroke="none" transform="matrix(1 0 0 1 57 704 )" />
  </g>
</svg>