<?xml version="1.0" encoding="utf-8"?>
<svg version="1.1" xmlns:xlink="http://www.w3.org/1999/xlink" width="12px" height="13px" xmlns="http://www.w3.org/2000/svg">
  <g transform="matrix(1 0 0 1 -108 -442 )">
    <path d="M 11.596153846153847 4.660995589161941  C 11.865384615384617 4.710144927536232  12 4.835748792270532  12 5.03780718336484  C 12 5.157950010501994  11.9375 5.289014912833437  11.8125 5.431001890359168  L 9.194711538461538 8.330812854442344  L 9.814903846153847 12.426591052299937  C 9.81971153846154 12.464818315479942  9.822115384615385 12.519428691451374  9.822115384615385 12.59042218021424  C 9.822115384615385 12.705103969754253  9.796875 12.80203738710355  9.746394230769232 12.88122243226213  C 9.695913461538462 12.960407477420711  9.622596153846155 13  9.526442307692307 13  C 9.435096153846155 13  9.338942307692307 12.967233774417139  9.237980769230768 12.901701323251418  L 6 10.968494013862633  L 2.762019230769231 12.901701323251418  C 2.65625 12.967233774417139  2.5600961538461537 13  2.473557692307692 13  C 2.3725961538461537 13  2.296875 12.960407477420711  2.246394230769231 12.88122243226213  C 2.1959134615384617 12.80203738710355  2.1706730769230766 12.705103969754253  2.1706730769230766 12.59042218021424  C 2.1706730769230766 12.55765595463138  2.1754807692307696 12.503045578659945  2.1850961538461537 12.426591052299937  L 2.8052884615384617 8.330812854442344  L 0.18028846153846154 5.431001890359168  C 0.06009615384615384 5.2835538752362945  0 5.152488972904853  0 5.03780718336484  C 0 4.835748792270532  0.13461538461538458 4.710144927536232  0.40384615384615385 4.660995589161941  L 4.024038461538462 4.063011972274731  L 5.646634615384616 0.335853812224322  C 5.73798076923077 0.11195127074144018  5.855769230769231 0  6 0  C 6.144230769230768 0  6.262019230769231 0.11195127074144018  6.353365384615385 0.335853812224322  L 7.975961538461538 4.063011972274731  L 11.596153846153847 4.660995589161941  Z " fill-rule="nonzero" fill="#ffde49" stroke="none" transform="matrix(1 0 0 1 108 442 )" />
  </g>
</svg>